<?xml version="1.0"?>
<svg width="640" height="480" xmlns="http://www.w3.org/2000/svg" xmlns:svg="http://www.w3.org/2000/svg">
 <!-- Created with SVG-edit - http://svg-edit.googlecode.com/ -->
 <g display="inline">
  <title>Layer 1</title>
  <path d="m307,150c0,-1.83334 0.01123,-2.62611 0.08533,-3.228c0.12085,-0.98155 0.26816,-1.86036 0.47717,-2.87616c0.11331,-0.55063 0.20752,-1.13321 0.77084,-2.89584c0.19321,-0.60456 0.42234,-1.19922 0.68549,-1.773c0.51227,-1.11694 0.77158,-1.66159 1.46918,-2.515c0.62253,-0.76156 1.37472,-1.27093 2.15866,-1.496c0.78268,-0.22471 1.63995,-0.212 2.97568,-0.216c0.46966,-0.00141 1.46698,0 2.00265,0c1.16534,0 1.80301,-0.00076 3.20834,0c0.77466,0.00042 1.59748,-0.00008 2.46601,0.0225c0.91287,0.02374 1.86838,0.06872 2.862,0.1575c1.03393,0.09238 2.11245,0.18952 4.33865,0.65333c1.17014,0.24379 2.35141,0.57787 3.5445,0.939c1.20303,0.36414 2.39462,0.76469 3.5715,1.173c1.1561,0.40111 2.27264,0.81485 4.384,1.55467c0.96997,0.33988 1.89044,0.64886 2.77051,0.9285c0.84403,0.26818 1.66562,0.51381 2.47348,0.7395c0.79919,0.22327 1.60153,0.43826 3.25601,0.832c0.86292,0.20536 1.75299,0.40154 2.66251,0.6c0.92383,0.20157 1.85834,0.4 2.79748,0.6c0.93918,0.2 1.87452,0.39469 3.70667,0.8c0.89093,0.19709 1.76236,0.3987 2.61902,0.591c0.84201,0.18901 1.67163,0.37236 2.49298,0.537c0.81137,0.16263 1.61481,0.32923 3.22134,0.53866c0.79831,0.10407 1.59949,0.16981 2.4,0.2145c0.79959,0.04464 1.6,0.06333 2.39999,0.0615c0.80008,-0.00183 1.60086,-0.01504 3.20001,-0.10933c0.80033,-0.04718 1.59915,-0.11489 2.39551,-0.195c0.79434,-0.0799 1.58438,-0.17466 2.3685,-0.285c0.7796,-0.1097 1.55393,-0.22282 3.06934,-0.52c0.74652,-0.14639 1.47982,-0.31382 2.2005,-0.4905c0.71002,-0.17406 1.40478,-0.35966 2.08349,-0.5535c0.66495,-0.18991 1.31375,-0.38122 2.54932,-0.78933c0.59134,-0.19533 1.15957,-0.39624 1.7055,-0.5955c0.52469,-0.1915 1.02442,-0.38178 1.49851,-0.5685c0.44952,-0.17705 0.8724,-0.34655 1.62933,-0.66934c0.33612,-0.14334 0.6435,-0.27956 0.92401,-0.4095c0.25809,-0.11953 0.49381,-0.23411 0.70798,-0.34649c0.19846,-0.10413 0.23199,-0.52924 1.22134,-0.78934c0.58258,-0.15316 0.60224,0.68408 0.58499,1.17383c-0.02212,0.62895 -0.10366,2.37156 -0.16015,3.51234c-0.06467,1.30591 -0.14023,2.75191 -0.23551,4.3125c-0.1008,1.65111 -0.21756,3.36728 -0.36151,5.1225c-0.14529,1.7715 -0.50103,5.25925 -0.72448,6.92883c-0.21695,1.62113 -0.46775,3.19687 -0.75,4.734c-0.27796,1.5136 -0.59006,3.00492 -0.93,4.48201c-0.34005,1.47764 -1.10431,4.44755 -1.5195,5.95549c-0.42074,1.5281 -0.86441,3.06776 -1.31851,4.6185c-0.45688,1.56027 -0.92432,3.1239 -1.3905,4.6905c-0.46582,1.5654 -1.38321,4.68102 -1.82715,6.22684c-0.44138,1.53684 -0.87433,3.06954 -1.31702,4.596c-0.44262,1.52621 -0.89374,3.05302 -1.371,4.57799c-0.48001,1.53375 -1.52347,4.6175 -2.0975,6.16967c-0.58185,1.57328 -1.20371,3.15865 -1.84348,4.767c-0.65115,1.63701 -1.32666,3.30028 -2.00552,5.00099c-0.69321,1.73659 -2.09305,5.34058 -2.78632,7.21601c-0.70553,1.90855 -1.39776,3.84726 -2.08951,5.79901c-0.69192,1.95224 -1.3724,3.8968 -2.05349,5.81698c-0.66962,1.88781 -1.98505,5.51307 -2.63517,7.22701c-0.62738,1.65402 -1.25134,3.246 -1.854,4.78799c-0.58466,1.49601 -1.15527,2.94976 -1.69199,4.37401c-0.5245,1.39182 -1.48672,4.11856 -1.91168,5.46733c-0.42032,1.33403 -0.80359,2.66695 -1.16699,3.996c-0.36191,1.32364 -0.70276,2.6503 -1.04102,3.978c-0.33908,1.33096 -1.01953,4.01491 -1.37783,5.36833c-0.36039,1.36126 -0.73206,2.72368 -1.11447,4.08301c-0.38129,1.35533 -0.77082,2.69982 -1.16852,4.02899c-0.39301,1.31348 -1.19257,3.86797 -1.595,5.10218c-0.39362,1.2071 -0.78855,2.38382 -1.16849,3.53549c-0.37103,1.12466 -0.73047,2.22334 -1.06052,3.30151c-0.32181,1.05126 -0.88189,3.09207 -1.10714,4.08466c-0.21988,0.96892 -0.40284,1.92335 -0.56702,2.8605c-0.16104,0.91924 -0.3013,1.82534 -0.44098,2.71651c-0.13767,0.87816 -0.41751,2.60051 -0.57767,3.44333c-0.15732,0.82786 -0.32614,1.63086 -0.50403,2.40149c-0.16967,0.735 -0.34317,1.42436 -0.52197,2.05951c-0.16312,0.57943 -0.47491,1.53317 -0.63101,1.88899c-0.12616,0.28755 -0.24143,0.51085 -0.375,0.6315c-0.09387,0.08478 -0.21323,0.09205 -0.28501,0.0195c-0.09686,-0.0979 -0.20346,-0.51025 -0.23965,-0.78684c-0.04269,-0.32617 -0.05945,-0.70869 -0.05402,-1.14599c0.00617,-0.49553 0.04258,-1.05147 0.10801,-1.668c0.07238,-0.68234 0.31485,-2.24576 0.48934,-3.12767c0.1875,-0.94766 0.41596,-1.94866 0.69599,-2.991c0.29211,-1.08729 0.63354,-2.20331 1.03799,-3.33299c0.41391,-1.15607 1.41349,-3.46953 2.00833,-4.60367c0.59986,-1.14368 1.26661,-2.26172 1.98301,-3.354c0.71838,-1.09531 1.48593,-2.15914 2.289,-3.192c0.79974,-1.02858 2.47674,-2.98546 3.34167,-3.91066c0.85269,-0.91211 1.72122,-1.78206 2.60401,-2.60401c0.86489,-0.80528 1.73916,-1.56195 2.622,-2.26199c0.85895,-0.68109 2.57633,-1.88193 3.43116,-2.39134c0.82708,-0.49289 1.65673,-0.92519 2.4855,-1.29601c0.80808,-0.36157 1.62018,-0.66675 2.43149,-0.918c0.79843,-0.24725 2.40225,-0.60806 3.20416,-0.72915c0.79569,-0.12017 1.59061,-0.19719 2.37903,-0.23551c0.77914,-0.03787 1.54977,-0.03723 2.30698,-0.00149c0.74432,0.03514 2.18328,0.19204 2.87118,0.31616c0.67368,0.12155 1.33035,0.27861 1.96048,0.492c0.62674,0.21224 1.23691,0.48053 1.8165,0.816c0.5907,0.3419 1.71664,1.23094 2.24451,1.77817c0.55352,0.57385 1.07769,1.23194 1.57501,1.96049c0.52395,0.76756 1.01697,1.6165 1.48498,2.5365c0.49305,0.96921 1.41031,3.13388 1.83951,4.32317c0.44751,1.24 0.86197,2.54101 1.2435,3.891c0.38983,1.37943 0.74021,2.79381 1.0455,4.233c0.30683,1.44629 0.78446,4.35688 0.94718,5.80617c0.1626,1.44826 0.27011,2.91567 0.34198,4.4115c0.07382,1.53659 0.10763,3.12926 0.126,4.78951c0.01926,1.7411 0.01801,5.51849 0.01801,7.57483c0,2.15432 0,4.38465 0,6.66899c0,2.31634 0,4.64267 0,6.957c0,2.28035 0.00104,6.65101 -0.00034,8.7025c-0.00131,1.96051 -0.0043,3.83905 -0.02099,5.6445c-0.01612,1.74154 -0.043,3.42822 -0.09299,5.06851c-0.04886,1.60373 -0.20904,4.73624 -0.32886,6.28c-0.11892,1.53229 -0.26645,3.04803 -0.43948,4.54349c-0.17075,1.47558 -0.36591,2.92532 -0.5835,4.34552c-0.21325,1.39184 -0.69095,4.06845 -0.95584,5.34698c-0.25802,1.24545 -0.53668,2.45609 -0.84601,3.6315c-0.30359,1.15366 -0.63693,2.28055 -1.00799,3.37952c-0.36777,1.08914 -1.2085,3.21554 -1.68933,4.25314c-0.48194,1.03998 -1.01056,2.0618 -1.59601,3.05402c-0.58734,0.99545 -1.23087,1.96411 -1.93799,2.892c-0.71173,0.93392 -2.31555,2.6958 -3.20868,3.51098c-0.90442,0.82547 -1.87716,1.59964 -2.90399,2.32501c-1.04071,0.73517 -2.13861,1.41889 -3.28201,2.055c-1.15812,0.64428 -3.59888,1.80212 -4.87015,2.32c-1.28226,0.52237 -2.59339,0.995 -3.92252,1.42499c-1.32937,0.43006 -2.6698,0.81354 -4.01248,1.155c-1.33081,0.33844 -3.96533,0.89728 -5.258,1.12033c-1.27148,0.21942 -2.53173,0.39911 -3.78152,0.54602c-1.23932,0.14569 -2.47537,0.25867 -3.7095,0.34799c-1.23395,0.08933 -3.71829,0.20911 -4.97333,0.249c-1.26367,0.04016 -2.53558,0.065 -3.81448,0.07501c-1.28483,0.01004 -2.57474,0.00497 -3.8685,-0.01502c-1.29694,-0.02002 -3.8957,-0.10086 -5.19452,-0.15966c-1.29319,-0.05857 -2.57407,-0.12961 -3.83698,-0.20398c-1.2391,-0.073 -2.448,-0.15009 -3.621,-0.22202c-1.13098,-0.06936 -3.24286,-0.18939 -4.21368,-0.23117c-0.91456,-0.03937 -1.77726,-0.06689 -2.59198,-0.08548c-0.77063,-0.01758 -1.50135,-0.02679 -2.19602,-0.03152c-0.66266,-0.00452 -1.90799,-0.00553 -2.4985,-0.00415c-0.57349,0.00131 -1.13312,0.00451 -1.68149,0.02099c-0.54065,0.01624 -1.0766,0.04376 -1.6095,0.09299c-0.53519,0.04944 -1.61999,0.21176 -2.17319,0.32852c-0.56427,0.11911 -1.13223,0.26352 -1.70397,0.41849c-0.57563,0.15604 -1.14939,0.32394 -1.72202,0.49051c-0.56869,0.16543 -1.68533,0.48404 -2.23099,0.62683c-0.53436,0.13983 -1.06006,0.26843 -1.57501,0.396c-0.50507,0.12509 -1.00085,0.24749 -1.48498,0.37799c-0.47587,0.12823 -1.39704,0.40829 -1.83951,0.56866c-0.43354,0.15714 -0.84928,0.3263 -1.2435,0.50403c-0.37671,0.16983 -0.7269,0.34399 -1.0455,0.52197c-0.29325,0.16382 -0.77176,0.47971 -0.94733,0.63101c-0.15054,0.12977 -0.26608,0.25669 -0.35251,0.375c-0.07474,0.10227 -0.1265,0.20011 -0.17249,0.28501c-0.04068,0.0751 -0.1228,0.20157 -0.18283,0.23965c-0.0632,0.0401 -0.14877,0.05912 -0.246,0.05402c-0.11621,-0.0061 -0.25284,-0.04501 -0.40802,-0.108c-0.18414,-0.07474 -0.62646,-0.3201 -0.88849,-0.48883c-0.29434,-0.18952 -0.60983,-0.41187 -0.94351,-0.66452c-0.3576,-0.27076 -0.72766,-0.57041 -1.1055,-0.8985c-0.39435,-0.34244 -1.19095,-1.1012 -1.58615,-1.51483c-0.40225,-0.42099 -0.79465,-0.85984 -1.17902,-1.30799c-0.38296,-0.44653 -0.7517,-0.89679 -1.10699,-1.34399c-0.34598,-0.43552 -0.98221,-1.27112 -1.27148,-1.66236c-0.27466,-0.37146 -0.53281,-0.72882 -0.78153,-1.07098c-0.24026,-0.3305 -0.47421,-0.65201 -0.7095,-0.96301c-0.23276,-0.30765 -0.71692,-0.91031 -0.97315,-1.20951c-0.26108,-0.30487 -0.53369,-0.61102 -0.80401,-0.93148c-0.27707,-0.32849 -0.55548,-0.67145 -0.82199,-1.03952c-0.27512,-0.37992 -0.79422,-1.22425 -1.0315,-1.69315c-0.24713,-0.4884 -0.47604,-1.01004 -0.70651,-1.55402c-0.23868,-0.56332 -0.47415,-1.15008 -0.72449,-1.75198c-0.25763,-0.61948 -0.81994,-1.89767 -1.13266,-2.55151c-0.32055,-0.67023 -0.66256,-1.35099 -0.99753,-2.05649c-0.34347,-0.72345 -0.68493,-1.47128 -0.99749,-2.25452c-0.32117,-0.80478 -0.87937,-2.52933 -1.09781,-3.45267c-0.22479,-0.95019 -0.40076,-1.93652 -0.54602,-2.94747c-0.14762,-1.02747 -0.25879,-2.07261 -0.348,-3.12751c-0.0895,-1.0585 -0.20986,-3.17227 -0.24865,-4.21783c-0.03849,-1.03711 -0.06037,-2.0687 -0.05402,-3.09601c0.00635,-1.02542 0.03888,-2.05139 0.108,-3.078c0.06949,-1.0322 0.31086,-3.11612 0.48868,-4.16815c0.17941,-1.0615 0.39975,-2.1211 0.65399,-3.17252c0.25318,-1.047 0.53839,-2.07669 0.85199,-3.08249c0.30793,-0.98758 0.9856,-2.86178 1.35086,-3.73816c0.35383,-0.8489 0.72837,-1.66092 1.11448,-2.44201c0.37774,-0.7642 0.77099,-1.50333 1.16851,-2.22599c0.39316,-0.71469 1.19373,-2.11902 1.59665,-2.81866c0.40641,-0.70572 0.82395,-1.42133 1.2735,-2.14203c0.4646,-0.74481 0.96802,-1.50794 1.52551,-2.28598c0.58741,-0.81976 1.95835,-2.54501 2.74933,-3.45667c0.83133,-0.95813 1.72086,-1.92794 2.63852,-2.916c0.93,-1.00132 1.87229,-1.99583 2.80048,-2.988c0.91043,-0.97319 2.61966,-2.83693 3.38217,-3.72516c0.72244,-0.84156 1.38879,-1.66172 1.992,-2.47351c0.58182,-0.78301 1.11506,-1.5689 1.59601,-2.3655c0.47638,-0.78903 1.31964,-2.44133 1.69834,-3.31033c0.38421,-0.88174 0.73425,-1.7876 1.07098,-2.70151c0.33594,-0.91179 0.65039,-1.82275 0.96301,-2.7195c0.30606,-0.87793 0.90335,-2.55067 1.20884,-3.32933c0.29342,-0.74797 0.59371,-1.46251 0.88949,-2.15249c0.28793,-0.67166 0.57675,-1.32579 0.85352,-1.97251c0.27386,-0.63997 0.79617,-1.9254 1.03564,-2.58267c0.24195,-0.66409 0.46906,-1.34285 0.68552,-2.03549c0.21991,-0.70369 0.42886,-1.42436 0.6315,-2.1615c0.20679,-0.75218 0.60666,-2.31396 0.8045,-3.12434c0.20221,-0.8283 0.40171,-1.67527 0.59998,-2.53949c0.20175,-0.87944 0.40137,-1.77439 0.6,-2.68351c0.20136,-0.92153 0.60196,-2.80009 0.79969,-3.7555c0.19961,-0.96459 0.39605,-1.93911 0.57898,-2.92499c0.18444,-0.99414 0.3569,-1.99886 0.50702,-3.015c0.15127,-1.02391 0.39007,-3.10426 0.47131,-4.15918c0.08151,-1.05849 0.13455,-2.11812 0.17102,-3.17249c0.03613,-1.04399 0.05356,-2.0733 0.06299,-3.0825c0.00918,-0.98416 0.009,-2.8575 0.009,-3.73801c0,-0.84349 0,-1.653 0,-2.4315c0,-0.75049 0,-1.476 0,-2.17949c0,-0.68451 0.00153,-2.0085 -0.00049,-2.65417c-0.00198,-0.63967 -0.00717,-1.27753 -0.03152,-1.917c-0.0246,-0.64592 -0.06671,-1.30227 -0.1395,-1.971c-0.07495,-0.68877 -0.31766,-2.13541 -0.4935,-2.89783c-0.18371,-0.79652 -0.41019,-1.61867 -0.67499,-2.46451c-0.27487,-0.87807 -0.59091,-1.77811 -0.945,-2.69848c-0.36567,-0.95049 -1.20725,-2.90911 -1.68,-3.916c-0.48703,-1.0373 -1.01477,-2.09569 -1.57501,-3.18151c-0.57959,-1.1233 -1.19708,-2.27757 -1.845,-3.4695c-0.67197,-1.23616 -2.1149,-3.83854 -2.87881,-5.212c-0.78675,-1.41455 -1.59186,-2.8598 -2.40152,-4.33051c-0.81604,-1.48227 -1.62738,-2.96946 -2.4195,-4.45649c-0.7825,-1.46901 -2.25549,-4.33608 -2.92917,-5.71967c-0.65143,-1.33789 -1.26047,-2.64288 -1.84198,-3.91049c-0.56372,-1.22879 -1.1001,-2.4259 -1.62601,-3.5865c-0.51144,-1.12873 -1.51321,-3.29183 -2.01767,-4.32484c-0.49301,-1.00962 -0.99002,-1.98933 -1.479,-2.946c-0.47839,-0.93598 -0.95172,-1.84946 -1.40701,-2.748c-0.44599,-0.88016 -1.2872,-2.60116 -1.67115,-3.44917c-0.37731,-0.83341 -0.73022,-1.66194 -1.06051,-2.4855c-0.32599,-0.81285 -0.63065,-1.62343 -0.91651,-2.4315c-0.28344,-0.80131 -0.80395,-2.40315 -1.04449,-3.20433c-0.23944,-0.79751 -0.46417,-1.59455 -0.67499,-2.3895c-0.20917,-0.78874 -0.40402,-1.57372 -0.58502,-2.3535c-0.17896,-0.77093 -0.49902,-2.28973 -0.63998,-3.03567c-0.13898,-0.73542 -0.26447,-1.46363 -0.375,-2.1855c-0.10941,-0.7145 -0.20478,-1.42477 -0.28501,-2.1315c-0.07977,-0.70264 -0.2009,-2.10415 -0.23965,-2.804c-0.03855,-0.6962 -0.06049,-1.38702 -0.05402,-2.0685c0.00635,-0.66964 0.03745,-1.32533 0.108,-1.9605c0.06854,-0.61706 0.30792,-1.7767 0.48834,-2.307c0.1749,-0.51401 0.39335,-0.99775 0.633,-1.45649c0.23526,-0.45035 0.49588,-0.87774 0.759,-1.29451c0.25962,-0.41122 0.77973,-1.21184 1.02234,-1.61333c0.24002,-0.39722 0.46854,-0.79574 0.69599,-1.1895c0.22522,-0.3899 0.44766,-0.77651 0.67801,-1.1535c0.22833,-0.37368 0.70871,-1.09448 0.96884,-1.4355c0.25863,-0.33903 0.53146,-0.66375 0.81448,-0.975c0.28076,-0.30877 0.57144,-0.60339 0.8685,-0.885c0.29367,-0.27839 0.89279,-0.79838 1.1955,-1.03983c0.29736,-0.23718 0.59671,-0.46051 0.90002,-0.66451c0.29682,-0.19961 0.59641,-0.3814 0.9,-0.53849c0.29663,-0.1535 0.89804,-0.39225 1.19964,-0.47634c0.2959,-0.08249 0.59152,-0.14083 0.87903,-0.2025c0.27985,-0.06002 0.55215,-0.11762 0.80698,-0.2025c0.24673,-0.08217 0.6907,-0.32684 0.87152,-0.5015c0.18399,-0.17773 0.33712,-0.39123 0.48147,-0.612c0.14472,-0.2213 0.27286,-0.44995 0.40952,-0.666c0.1315,-0.20792 0.40994,-0.56843 0.57315,-0.6935c0.15521,-0.11894 0.32846,-0.20149 0.50403,-0.2565c0.17224,-0.05396 0.3489,-0.08036 0.52197,-0.0945c0.16836,-0.01376 0.48602,-0.0135 0.63116,-0.0135c0.13617,0 0.26435,0 0.38553,0c0.11515,0 0.22531,0 0.33149,0c0.10318,0 0.3045,0 0.40466,0c0.10116,0 0.20434,0 0.31051,0c0.11017,0 0.22532,0 0.3465,0l0.12818,0" id="svg_32" stroke-linecap="null" stroke-linejoin="null" stroke-dasharray="null" stroke-width="5" stroke="#000000" fill="#ffaa56"/>
  <path d="m447.55556,148c0.70449,-1 1.57748,-0.99722 2.5,-1.33333c0.57327,-0.20886 1.25582,-0.5428 2.112,-0.852c0.48437,-0.17493 2.21945,-0.65705 2.89584,-0.793c0.71963,-0.14465 1.48599,-0.26724 2.29349,-0.375c0.84353,-0.11258 1.72345,-0.20612 2.6355,-0.28501c0.93997,-0.08129 2.89627,-0.20077 3.906,-0.23983c1.02628,-0.03971 2.06696,-0.06266 3.1185,-0.0645c1.05951,-0.00186 2.12433,0.01683 3.19049,0.06151c1.06592,0.04466 3.18244,0.20607 4.22669,0.32383c1.03714,0.11696 2.06466,0.26027 3.08548,0.40799c1.0155,0.14696 2.02481,0.30239 3.03152,0.444c1.00263,0.14104 3.00373,0.38095 4.00449,0.46234c0.9993,0.08127 1.99975,0.13466 3,0.17099c0.99978,0.03632 1.99997,0.05367 3,0.06301c1,0.00932 3,0.00801 4.00018,0.00934c1.00116,0.00134 2.0044,0.0047 3.0105,0.02099c1.01019,0.01636 2.02563,0.04389 3.04651,0.093c1.0285,0.04949 3.11041,0.21065 4.16431,0.32866c1.06481,0.11923 2.13647,0.26593 3.21447,0.429c1.0857,0.16423 2.17517,0.34668 3.26856,0.53701c1.09729,0.19099 3.29535,0.59173 4.39599,0.79083c1.10334,0.19957 2.21247,0.39859 3.33149,0.58951c1.13,0.19278 2.27526,0.37958 3.43951,0.55349c1.18378,0.17684 3.62781,0.49663 4.89233,0.6355c1.28614,0.14124 2.58924,0.26505 3.90149,0.375c1.31342,0.11005 2.62238,0.20442 3.9195,0.28501c1.27759,0.07936 3.74841,0.19673 4.92816,0.24083c1.13763,0.04251 2.23163,0.07534 3.27899,0.1275c1,0.0498 1.95111,0.1107 2.84699,0.2175c0.84564,0.1008 2.37036,0.41584 3.03216,0.66233c0.62799,0.23391 1.20349,0.53557 1.72351,0.8895c0.5149,0.35045 0.9881,0.76373 1.43549,1.2135c0.45844,0.46089 1.34137,1.50665 1.79083,2.07517c0.46546,0.58871 0.92981,1.2063 1.38306,1.854c0.46161,0.65961 0.90869,1.34325 1.32898,2.052c0.42261,0.71269 1.18103,2.18993 1.50214,2.95099c0.32031,0.7592 0.59759,1.53589 0.83551,2.32501c0.23852,0.79109 0.43731,1.59751 0.6015,2.415c0.16522,0.82266 0.40374,2.50407 0.48486,3.35949c0.0816,0.86067 0.13458,1.72673 0.17096,2.59351c0.03625,0.86427 0.05365,1.72395 0.06305,2.5755c0.00927,0.84047 0.00897,2.4765 0.00897,3.267c0,0.7735 0,1.533 0,2.28149c0,0.74051 0,1.476 0,2.2095c0,0.7345 0,2.21851 0,2.9735c0,0.765 0,1.54001 0,2.32501c0,0.795 0,1.59999 0,2.41499c0,0.825 0,2.50501 0,3.35984c0,0.86383 0,1.73567 0,2.6145c0,0.88483 0,1.77466 0,2.6685c0,0.89684 -0.00049,2.6955 0.00018,3.59566c0.00067,0.90117 0.00238,1.80435 0.0105,2.71051c0.00818,0.91017 0.02197,1.82541 0.04651,2.74649c0.02472,0.92827 0.10565,2.80974 0.16412,3.76384c0.05884,0.96057 0.13013,1.92276 0.20404,2.88299c0.07343,0.95443 0.15064,1.89856 0.22199,2.829c0.06994,0.91225 0.19147,2.66673 0.23065,3.50301c0.03803,0.81176 0.06037,1.60601 0.05402,2.388c-0.00635,0.77612 -0.03943,1.5529 -0.10803,2.334c-0.06989,0.79509 -0.31452,2.44384 -0.48829,3.307c-0.18054,0.89702 -0.39959,1.82074 -0.63305,2.775c-0.24115,0.98578 -0.50116,1.99937 -0.75897,3.04499c-0.2649,1.07438 -0.78242,3.31388 -1.02253,4.4785c-0.24395,1.18338 -0.47143,2.38129 -0.70648,3.58051c-0.23395,1.19379 -0.4671,2.37395 -0.72449,3.52649c-0.25085,1.12347 -0.80694,3.23494 -1.13299,4.20018c-0.31085,0.9201 -0.65515,1.78253 -1.0185,2.59199c-0.3482,0.77582 -0.71759,1.50475 -1.09051,2.196c-0.35932,0.66602 -1.08014,1.90879 -1.427,2.49832c-0.33722,0.57312 -0.66956,1.1308 -1.00653,1.67103c-0.3321,0.53244 -0.67084,1.05416 -1.02448,1.56298c-0.35443,0.50992 -1.11743,1.51401 -1.53332,2.00867c-0.4228,0.50284 -0.86957,0.99722 -1.33948,1.479c-0.47376,0.48569 -0.96833,0.95649 -1.48352,1.40702c-0.51563,0.45089 -1.59449,1.28967 -2.15515,1.67099c-0.55683,0.37872 -1.12677,0.72806 -1.70405,1.04999c-0.57025,0.31802 -1.14581,0.60757 -1.72198,0.86999c-0.56531,0.25748 -1.68353,0.69711 -2.23151,0.88034c-0.53625,0.17932 -1.07147,0.33454 -1.6065,0.47101c-0.534,0.1362 -1.0752,0.25458 -1.62451,0.36301c-0.55866,0.11029 -1.72315,0.31085 -2.33313,0.40881c-0.62738,0.10077 -1.271,0.19846 -1.92902,0.28952c-0.66931,0.09262 -1.34888,0.17841 -2.03699,0.25348c-0.69323,0.07562 -2.09076,0.19485 -2.78998,0.23569c-0.69281,0.04046 -1.37396,0.06704 -2.03704,0.08548c-0.63892,0.01776 -1.24799,0.02673 -1.82099,0.03152c-0.531,0.00446 -1.44299,0.0051 -1.81384,0.00433c-0.3158,-0.00067 -0.58179,-0.00122 -0.80249,-0.01053c-0.18097,-0.00762 -0.32813,-0.0184 -0.44251,-0.04647c-0.09234,-0.02268 -0.22442,-0.10456 -0.26184,-0.16452c-0.03796,-0.06086 -0.05298,-0.14182 -0.03296,-0.22498c0.02375,-0.09863 0.09467,-0.20615 0.20099,-0.315c0.12995,-0.133 0.53949,-0.41135 0.818,-0.55985c0.32116,-0.17123 0.69763,-0.34146 1.125,-0.51449c0.47241,-0.19129 0.99811,-0.38047 1.57501,-0.56851c0.62299,-0.20307 2.02356,-0.60102 2.79834,-0.79517c0.81189,-0.20346 1.65558,-0.39612 2.51996,-0.57898c0.87231,-0.18454 1.74579,-0.35449 2.61004,-0.50702c0.84247,-0.14868 2.4292,-0.38745 3.15564,-0.47131c0.67902,-0.0784 1.31696,-0.13376 1.917,-0.17102c0.56536,-0.03513 1.10125,-0.0535 1.61102,-0.06299c0.48761,-0.00906 1.41296,-0.009 1.85797,-0.009c0.435,0 0.85998,0 1.27502,0c0.40497,0 0.79999,0 1.185,0c0.375,0 1.09497,-0.00177 1.44019,0.00015c0.98553,0.00549 1.6203,-0.03375 2.82147,0.1665c0.91028,0.15177 1.52936,0.36289 2.09998,0.70935c1.27655,0.77515 1.52752,1.16068 2.10003,1.86399c0.63129,0.77554 0.93616,1.22406 1.79999,2.76001c0.31348,0.55737 0.60474,1.1557 0.90448,1.776c0.30975,0.64099 0.61725,1.30691 0.93152,1.992c0.32214,0.70224 0.64423,1.42371 1.33069,2.89865c0.35187,0.75608 0.71692,1.51825 1.08148,2.2905c0.36743,0.77841 0.73511,1.56186 1.09051,2.35352c0.3556,0.79199 0.71662,1.58105 1.32801,3.18933c0.30243,0.79562 0.56946,1.59878 0.81445,2.40451c0.24439,0.80371 0.46362,1.61453 0.6615,2.43149c0.19849,0.81942 0.38684,1.64608 0.69067,3.33065c0.15387,0.85297 0.28504,1.71531 0.40503,2.58152c0.12,0.86581 0.22455,1.73049 0.315,2.59048c0.08948,0.85104 0.17316,1.6911 0.27997,3.328c0.05152,0.78995 0.08466,1.56256 0.1095,2.319c0.02441,0.74225 0.03833,1.47266 0.04651,2.19303c0.00812,0.71228 0.01001,1.41864 0.01068,2.82132c0.0003,0.70035 0,1.40268 0,2.10901c0,0.71231 0,1.43264 0,2.16299c0,0.74234 -0.00018,1.49866 0,3.06134c0.00012,0.81067 -0.00006,1.64533 0.00452,2.508c0.0047,0.89465 0.01379,1.82534 0.03149,2.79599c0.01856,1.01474 0.0387,2.07772 0.13068,4.36267c0.04943,1.22809 0.11554,2.50302 0.19946,3.81149c0.08533,1.33023 0.1875,2.66849 0.31653,4.00052c0.12744,1.3157 0.24438,2.6058 0.65063,5.02133c0.18842,1.12018 0.42597,2.17374 0.66754,3.17548c0.23206,0.96225 0.48108,1.88632 0.71247,2.78851c0.22693,0.8848 0.47662,1.75592 0.78668,3.53601c0.15778,0.90576 0.25458,1.83383 0.33301,2.772c0.07892,0.94458 0.12829,1.89451 0.17102,2.844c0.04254,0.94519 0.06372,1.88333 0.16266,3.71731c0.04803,0.89039 0.11444,1.76026 0.18597,2.61002c0.06989,0.83023 0.1474,1.63998 0.22199,2.42999c0.07269,0.76999 0.15387,1.51902 0.25866,2.95999c0.05017,0.68995 0.086,1.36261 0.08252,2.01902c-0.00341,0.64251 -0.0415,1.27563 -0.14251,1.893c-0.10077,0.61594 -0.2165,1.24948 -0.77332,2.42133c-0.2937,0.61807 -0.69946,1.21109 -1.16101,1.79098c-0.47955,0.60254 -1.03357,1.18219 -1.64697,1.73703c-0.63385,0.57334 -1.31073,1.14765 -2.85871,2.13864c-0.80395,0.51471 -1.66742,0.97303 -2.55749,1.41452c-0.90338,0.44809 -1.83502,0.86405 -2.78247,1.26151c-0.95093,0.39892 -1.90943,0.77978 -3.82666,1.49066c-0.94348,0.34982 -1.88044,0.68396 -2.81403,0.996c-0.92511,0.30924 -1.84973,0.59781 -2.77801,0.85199c-0.9245,0.25315 -1.85083,0.50525 -3.74134,0.81867c-0.95105,0.15768 -1.9151,0.25445 -2.88147,0.32849c-0.96576,0.07397 -1.93084,0.1149 -2.8905,0.13949c-0.95136,0.02439 -1.89203,0.03019 -3.72803,0.03202c-0.8905,0.00088 -1.76397,0.00021 -2.62347,-0.00449c-0.84851,-0.00464 -1.68909,-0.01333 -2.52448,-0.03152c-0.83361,-0.01813 -1.6687,-0.0362 -3.35205,-0.13065c-0.85559,-0.048 -1.72143,-0.11587 -2.59948,-0.186c-0.8913,-0.07117 -1.79621,-0.14896 -2.7165,-0.22202c-0.93603,-0.07431 -1.88849,-0.15607 -3.85064,-0.25867c-1.00867,-0.05273 -2.03198,-0.08487 -3.06305,-0.10949c-1.0329,-0.02469 -2.06195,-0.03824 -3.081,-0.04648c-1.00299,-0.00809 -1.98394,-0.01001 -3.85595,-0.01068c-0.88104,-0.00031 -1.72803,0 -2.547,0c-0.797,0 -1.578,0 -2.349,0c-0.76703,0 -1.53601,0 -3.104,0c-0.80884,0 -1.63068,0 -2.4585,0c-0.82684,0 -1.64569,0 -2.44952,0c-0.78186,0 -1.53467,0 -2.92533,0c-0.62585,0 -1.20666,0 -1.74749,0c-0.50586,0 -0.98169,0 -1.43253,0c-0.43082,0 -0.84665,0.001 -1.65332,0c-0.40018,-0.00052 -0.80185,0.00079 -1.2045,-0.02701c-0.40686,-0.02811 -0.82016,-0.08206 -1.2315,-0.189c-0.42575,-0.11065 -0.88056,-0.24343 -1.73066,-0.78399c-0.47363,-0.30118 -0.9273,-0.70294 -1.3815,-1.15201c-0.47872,-0.4733 -0.94195,-1.00598 -1.3905,-1.58398c-0.46298,-0.59662 -0.92645,-1.22202 -1.728,-2.59736c-0.40744,-0.69909 -0.7691,-1.42791 -1.10101,-2.16748c-0.32941,-0.734 -0.62036,-1.47384 -0.867,-2.21252c-0.24042,-0.72 -0.47339,-1.42368 -0.69867,-2.78665c-0.10446,-0.63196 -0.14041,-1.2442 -0.12448,-1.82849c0.01541,-0.5643 0.08609,-1.1128 0.20849,-1.6395c0.12152,-0.52286 0.27311,-1.04529 0.74933,-2.03201c0.24579,-0.50931 0.54807,-1.00443 0.8805,-1.491c0.33822,-0.49509 0.71395,-0.9758 1.1235,-1.43701c0.41419,-0.46643 0.84454,-0.93225 1.82935,-1.73865c0.49667,-0.40667 1.03158,-0.76996 1.57199,-1.12802c0.54226,-0.35928 1.09616,-0.703 1.64401,-1.056c0.54681,-0.35232 1.10577,-0.68698 2.11731,-1.48266c0.50211,-0.39496 0.96908,-0.82953 1.41452,-1.28098c0.44403,-0.45004 0.86246,-0.92224 1.2615,-1.40701c0.39731,-0.48267 0.7804,-0.97342 1.49067,-1.97867c0.35067,-0.49631 0.6845,-0.9993 1.00949,-1.50449c0.32434,-0.50418 0.6391,-1.01468 0.9465,-1.53152c0.30896,-0.5195 0.62369,-1.04151 1.51016,-2.68515c0.30139,-0.55887 0.59406,-1.12354 0.86853,-1.69351c0.53803,-1.11734 0.77893,-1.66852 0.97595,-2.21601c0.54297,-1.50894 0.69672,-2.45794 0.74805,-2.90799c0.09967,-0.87362 0.10596,-1.74398 0.10797,-3.08233c0.00141,-0.92267 0,-1.383 0,-2.28168c0,-0.84265 0.02765,-2.24258 -0.02081,-3.03482c-0.04041,-0.66043 -0.35773,-1.64829 -0.62653,-2.40533c-0.35089,-0.98832 -0.31067,-0.83008 -0.06866,0.11483c0.20331,0.79386 0.40722,1.387 0.54931,2.39466c0.15235,1.08038 0.15107,1.8345 0.10505,2.58068c-0.06714,1.08899 -0.16394,1.78641 -0.50086,2.711c-0.2171,0.5958 -0.94415,1.66187 -1.46081,2.0755c-0.81775,0.6547 -1.53153,0.96897 -2.71952,1.22315c-0.85711,0.18338 -1.31778,0.18707 -2.24249,0.22168c-0.93155,0.03485 -1.84802,0.02133 -2.72803,0.02133c-0.83999,0 -1.63998,0 -2.39999,0c-1.40265,0 -2.06131,0 -3.03934,0c-1.01397,0 -1.72998,0 -2.46197,0c-1.0755,0 -2.0524,-0.02154 -2.871,0.00449c-0.90641,0.02884 -1.93564,0.24231 -2.53519,0.55801c-0.69061,0.36368 -1.68277,1.19028 -2.19382,1.73084c-0.54727,0.57885 -1.05826,1.25726 -1.45199,2.04c-0.40918,0.81348 -0.67499,1.7164 -0.948,2.616c-0.13501,0.44486 -0.53766,1.72339 -0.86801,2.48398c-0.3183,0.73279 -0.70249,1.43722 -0.948,2.22c-0.40436,1.28928 -0.41913,1.80096 -0.49735,2.85468c-0.0411,0.5538 -0.06552,1.70547 -0.06933,2.29599c-0.00775,1.19598 -0.00266,2.39602 -0.00266,2.996c0,0.6 0,1.80002 0,2.40002c0,0.59998 0,2.39981 0,2.99866c0,0.59683 0,1.78049 0,2.36532c0,0.57883 0,2.26935 0,2.81467c0,1.06867 0,1.59601 0,2.64667c0,0.52734 0.00101,2.14133 -0.00015,2.69568c-0.00232,1.12265 -0.00131,1.68323 -0.03586,2.78164c-0.01669,0.53049 -0.10666,2.00107 -0.24933,2.84269c-0.12906,0.76129 -0.32333,1.45919 -0.51599,2.13598c-0.29629,1.0409 -0.4827,1.78427 -0.78201,2.51868c-0.31073,0.76239 -1.0542,1.86346 -1.758,2.51468c-0.37262,0.34476 -1.23745,0.97131 -1.70132,1.27466c-0.95355,0.62353 -1.95569,1.21344 -2.45783,1.51031c-1.0097,0.59696 -1.52584,0.89005 -2.06201,1.15869c-1.09787,0.55011 -1.68112,0.80799 -2.9375,1.20832c-0.65823,0.20974 -1.35049,0.37509 -2.0625,0.51449c-1.45312,0.28449 -2.19678,0.36765 -2.93667,0.45267c-0.73349,0.08429 -2.16727,0.20303 -2.85801,0.24484c-0.67328,0.04074 -1.33294,0.06931 -2.62198,0.12134c-0.63549,0.02563 -1.2705,0.02975 -3.1875,0.16666c-0.65612,0.04684 -1.32409,0.11633 -2.00851,0.186c-0.70358,0.07163 -1.42877,0.14963 -2.1795,0.22202c-0.77829,0.07504 -1.58695,0.15756 -3.31198,0.25866c-0.91806,0.0538 -1.86792,0.08499 -2.83951,0.1095c-0.98441,0.02484 -1.97296,0.03827 -2.95651,0.04648c-0.96949,0.00812 -1.91599,0.01037 -3.70398,0.01068c-0.82569,0.00015 -1.60538,0.00067 -2.34302,-0.009c-0.69971,-0.00919 -1.36569,-0.02579 -2.00101,-0.06299c-0.61008,-0.03574 -1.20221,-0.06784 -2.32266,-0.26136c-0.54797,-0.09463 -1.6123,-0.372 -2.13065,-0.53866c-1.03122,-0.33157 -1.5335,-0.53195 -3.03601,-1.12799c-0.50033,-0.19849 -1.49322,-0.59934 -1.97867,-0.81067c-0.95379,-0.41522 -1.44,-0.58997 -2.68798,-1.35599c-0.78635,-0.48267 -1.47296,-1.05753 -1.8125,-1.33334c-0.6709,-0.54502 -1.68976,-1.33008 -2.40619,-1.82535c-0.75302,-0.52057 -1.168,-0.78604 -1.91916,-1.5275c-0.41565,-0.41028 -1.21219,-1.47036 -1.595,-2.11966c-0.41486,-0.70364 -0.80243,-1.49154 -1.16849,-2.3475c-0.3859,-0.90231 -0.73972,-1.86826 -1.06052,-2.88748c-0.33181,-1.05417 -0.88711,-3.28946 -1.10681,-4.45667c-0.22327,-1.18628 -0.40008,-2.39694 -0.54602,-3.6225c-0.14682,-1.23288 -0.25845,-2.47277 -0.34799,-3.71252c-0.08908,-1.23361 -0.20984,-3.66727 -0.24866,-4.85898c-0.03845,-1.18033 -0.06024,-2.35901 -0.05401,-3.54452c0.00631,-1.20157 0.04003,-2.4285 0.108,-3.68848c0.07034,-1.30414 0.31482,-4.07654 0.48834,-5.55884c0.18079,-1.54449 0.39795,-3.13733 0.633,-4.77002c0.23953,-1.66403 0.49768,-3.3468 0.759,-5.03998c0.26135,-1.69348 0.7789,-5.03973 1.02234,-6.67535c0.23919,-1.60706 0.46805,-3.18875 0.69598,-4.746c0.22473,-1.5354 0.44751,-3.05115 0.67801,-4.54798c0.22818,-1.48184 0.71021,-4.40469 0.96832,-5.84899c0.2566,-1.4357 0.52472,-2.85965 0.78302,-4.27503c0.25635,-1.40463 0.50672,-2.79867 0.72901,-4.185c0.22027,-1.37375 0.57998,-4.09375 0.70248,-5.44c0.12137,-1.33389 0.20182,-2.65961 0.2565,-3.97497c0.05426,-1.30469 0.08048,-2.59995 0.09452,-3.88501c0.01394,-1.27497 0.01348,-3.79502 0.01348,-5.04035c0,-1.23733 0,-2.46866 0,-3.69598c0,-1.22534 0,-2.45069 0,-3.67801c0,-1.23132 0,-3.71399 0,-4.96951c0,-1.2685 0,-2.55298 0,-3.85648c0,-1.3255 0,-2.67603 0,-4.0545c0,-1.40952 0,-4.3335 0,-5.85233c0,-1.55185 0,-3.12967 0,-4.7265c0,-1.60886 0,-3.22269 0,-4.8345c0,-1.60285 0,-4.75351 0,-6.28934c0,-1.51083 0,-3.00168 0,-4.47751c0,-1.46584 0,-2.92667 0,-4.3875c0,-1.46583 0.00052,-4.43249 -0.00015,-5.94133c-0.00067,-1.52183 -0.00232,-3.04968 -0.01053,-4.5765c-0.00815,-1.51885 -0.02154,-3.02272 -0.04648,-4.50451c-0.02444,-1.45289 -0.10385,-4.24374 -0.16433,-5.56916c-0.05841,-1.27993 -0.13147,-2.51763 -0.21451,-3.717c-0.08075,-1.16595 -0.17221,-2.30154 -0.26849,-3.41099c-0.09443,-1.08788 -0.29551,-3.213 -0.39533,-4.258c-0.09885,-1.035 -0.19723,-2.05987 -0.28952,-3.07501c-0.09134,-1.00485 -0.17777,-1.99976 -0.25348,-2.985c-0.07492,-0.97476 -0.19485,-2.89479 -0.23569,-3.84017c-0.04043,-0.93599 -0.06726,-1.86427 -0.08548,-2.78549c-0.01809,-0.91513 -0.02685,-1.82532 -0.03152,-2.7315c-0.00467,-0.90317 -0.00449,-2.7045 -0.00449,-3.6055c0,-0.907 0,-1.82601 0,-2.763c0,-0.961 0,-1.952 0,-2.97901c0,-1.069 0,-3.35699 0,-4.58499c0,-1.276 0,-2.588 0,-3.92399c0,-1.34801 0,-2.69602 0,-4.03202c0,-1.31199 0,-3.81599 0,-4.98683c0,-1.11583 0,-2.18166 0,-3.2025c0,-0.98083 0,-1.92666 0,-2.8425c0,-0.89084 -0.001,-2.61749 0.00034,-3.46232c0.00131,-0.83384 0.00448,-1.65575 0.021,-2.46451c0.01623,-0.79492 0.04306,-1.57512 0.09298,-2.3385c0.04889,-0.74735 0.20825,-2.1873 0.32868,-2.87517c0.11721,-0.66959 0.26202,-1.31378 0.42901,-1.929c0.16074,-0.59215 0.34088,-1.15241 0.53699,-1.67699c0.1857,-0.49672 0.58139,-1.37622 0.79165,-1.75168c0.19587,-0.34974 0.40653,-0.66623 0.64203,-0.942c0.23041,-0.26977 0.49353,-0.51155 0.78598,-0.726c0.30497,-0.2236 1.03406,-0.62648 1.4585,-0.81765c0.45944,-0.20694 0.96957,-0.40198 1.53149,-0.57901c0.607,-0.19123 1.27347,-0.36145 1.99952,-0.50699c0.78201,-0.15677 2.54754,-0.392 3.53167,-0.47135c1.04126,-0.08395 2.13211,-0.13499 3.25949,-0.17099c1.15299,-0.03681 2.32129,-0.05365 3.4935,-0.063c1.16513,-0.00929 3.43052,-0.01004 4.51084,-0.00867c1.04233,0.00133 2.04874,0.00432 3.02099,0.021c0.94043,0.01613 1.85108,0.04285 2.73301,0.093c0.85678,0.04874 2.50064,0.20775 3.28933,0.329c0.77411,0.119 1.53122,0.2691 2.271,0.44999c0.73306,0.17925 1.45395,0.39011 2.16299,0.63001c0.70975,0.24014 2.11243,0.80238 2.80884,1.11967c0.70239,0.32003 1.39853,0.66579 2.08951,1.029c0.69275,0.36415 1.37683,0.74557 2.0535,1.137c0.67401,0.38991 1.99109,1.19007 2.63565,1.5905c0.63675,0.39559 1.26248,0.79006 1.88553,1.16849c0.61331,0.37253 1.22119,0.73157 1.83148,1.0605c0.59921,0.32297 1.80008,0.88309 2.40365,1.10685c0.59006,0.21875 1.17621,0.39665 1.74753,0.54599c0.54721,0.14303 1.07242,0.25541 1.56748,0.348c0.45837,0.08573 1.25225,0.20572 1.57867,0.24916c0.28299,0.03768 0.53015,0.06649 0.74851,0.08551c0.19601,0.01709 0.37725,0.02681 0.5505,0.0315c0.17212,0.00465 0.54151,0.00404 0.75083,0.00467c0.22534,0.00067 0.46273,0.00241 0.708,0.01049c0.24939,0.00821 0.49903,0.0214 0.74399,0.0465c0.23776,0.02435 0.67407,0.10278 0.86219,0.16417c0.17327,0.05655 0.32678,0.1269 0.46048,0.20401c0.12255,0.07068 0.22534,0.14932 0.31649,0.222l0.07819,0.06866" id="svg_34" stroke-linecap="null" stroke-linejoin="null" stroke-dasharray="null" stroke-width="5" stroke="#000000" fill="#ff7f00"/>
  <path d="m223,136c1,-0.97916 1.60022,-1.54044 2.14934,-2.18533c0.64804,-0.76106 0.91351,-1.50741 1.73649,-1.9145c0.80275,-0.39709 1.51619,-0.48812 2.23416,-0.61484c1.38991,-0.24531 2.06591,-0.26615 2.74134,-0.23867c1.47566,0.06006 1.88308,0.16508 2.7485,0.31051c0.91278,0.15338 1.84253,0.34477 2.3075,0.44416c1.36296,0.29135 2.23176,0.49637 3.08267,0.7195c0.42624,0.11177 1.29083,0.34406 2.62134,0.80067c0.93637,0.32135 1.40649,0.5082 2.35333,0.88917c0.47394,0.19069 1.85904,0.78847 2.30417,0.98917c0.87376,0.39396 1.73657,0.79291 2.63098,1.14299c0.45682,0.17881 1.93112,0.64322 2.4595,0.77184c1.08832,0.26493 1.65097,0.36729 2.21601,0.47466c1.13098,0.21493 2.24798,0.41088 3.32934,0.60934c0.52814,0.09693 1.56378,0.28474 2.07465,0.36533c1.00806,0.15905 2.00973,0.28206 3.01333,0.35067c0.50596,0.03458 1.53894,0.06732 2.06934,0.07466c1.0986,0.0152 2.26138,0.01547 3.496,0.008c0.63736,-0.00385 1.28299,-0.01062 1.93201,-0.03899c1.29547,-0.05664 1.93674,-0.09652 3.16666,-0.29168c0.59286,-0.09407 1.71795,-0.36967 2.25067,-0.53866c1.0325,-0.32754 1.52447,-0.51851 2.91601,-1.128c0.88654,-0.38829 1.31137,-0.59604 2.14582,-1c0.81823,-0.39613 2.02044,-1.0008 2.42083,-1.19983c0.79923,-0.39728 1.59314,-0.79486 2.4,-1.143c1.1903,-0.5136 1.59625,-0.64677 2.3955,-0.9c0.78031,-0.24723 1.54871,-0.4478 2.98349,-0.857c0.67801,-0.19337 1.35749,-0.40432 2.08802,-0.543c1.22574,-0.2327 2.18603,-0.28022 2.69549,-0.2865c1.05835,-0.01306 1.60599,-0.00664 2.67084,0.18666c1.04437,0.18958 2.00784,0.5795 2.44785,0.83217c0.88552,0.50854 1.30947,0.84134 2.03082,1.65584c0.77579,0.87598 1.10693,1.41927 1.71734,2.60133c0.32483,0.62902 0.60294,1.31445 0.85199,2.04c0.25904,0.75458 0.51185,1.55028 0.81867,3.28c0.16235,0.9153 0.25549,1.87642 0.32849,2.871c0.07538,1.02686 0.11523,2.08718 0.1395,3.177c0.0249,1.11755 0.03015,2.26133 0.03201,4.61867c0.00095,1.20949 0.00015,2.436 -0.00449,3.6765c-0.00467,1.2515 -0.01339,2.51104 -0.03152,3.77549c-0.01816,1.26655 -0.03446,2.53253 -0.13065,5.04801c-0.04767,1.24614 -0.1152,2.48696 -0.195,3.7275c-0.08017,1.24614 -0.17594,2.502 -0.28501,3.7725c-0.11087,1.29119 -0.23065,2.60764 -0.51999,5.33332c-0.15066,1.41937 -0.31595,2.8717 -0.50851,4.34851c-0.19531,1.49792 -0.41525,3.00801 -0.67951,4.5195c-0.26474,1.5143 -0.52392,3.03112 -1.31198,5.96533c-0.38784,1.44412 -0.85836,2.84802 -1.35751,4.224c-0.49435,1.36279 -1.03082,2.6958 -1.58249,4.008c-0.54675,1.30047 -1.11716,2.57699 -2.22668,5.10133c-0.54688,1.24419 -1.08243,2.47897 -1.60498,3.705c-0.51743,1.21398 -1.02256,2.41896 -1.51502,3.61501c-0.48749,1.18397 -0.96774,2.35693 -1.88,4.67999c-0.44931,1.14418 -0.88477,2.28505 -1.31848,3.423c-0.43427,1.13938 -0.86789,2.28579 -1.30951,3.441c-0.44733,1.17012 -0.89878,2.36099 -1.87201,4.80267c-0.5044,1.26541 -1.03174,2.54866 -1.56751,3.8445c-0.53756,1.30015 -1.0783,2.593 -1.61248,3.8715c-0.52418,1.25451 -1.04004,2.47324 -1.98667,4.784c-0.43845,1.07024 -0.84769,2.09004 -1.224,3.0705c-0.36218,0.94366 -0.69986,1.86453 -1.00799,2.7735c-0.30448,0.89813 -0.60276,1.79738 -1.10135,3.656c-0.25782,0.96108 -0.48645,1.95381 -0.71399,2.967c-0.23117,1.02948 -0.45233,2.07475 -0.67801,3.129c-0.22699,1.06041 -0.44315,2.12628 -0.94132,4.23733c-0.247,1.04669 -0.51382,2.07961 -0.78601,3.10051c-0.26922,1.00977 -0.54614,2.004 -0.82199,2.98349c-0.27151,0.96416 -0.54638,1.90926 -1.05868,3.74934c-0.24759,0.88933 -0.48212,1.75979 -0.70951,2.61001c-0.22192,0.8298 -0.43567,1.64016 -0.64648,2.42999c-0.20557,0.77017 -0.40213,1.52203 -0.81067,2.96001c-0.19638,0.69114 -0.39767,1.36163 -0.59549,2.01449c-0.19287,0.63648 -0.38449,1.25609 -0.56851,1.8615c-0.17963,0.59092 -0.36008,1.16672 -0.66934,2.29066c-0.14954,0.54344 -0.28302,1.07662 -0.405,1.59601c-0.11789,0.502 -0.22278,0.98677 -0.315,1.452c-0.08765,0.44215 -0.16877,0.85998 -0.28,1.61866c-0.04904,0.33446 -0.08353,0.63979 -0.1095,0.915c-0.0231,0.24482 -0.03769,0.45993 -0.04648,0.645c-0.00735,0.15495 -0.0108,0.28 -0.01068,0.44c0.00003,0.034 0.00287,0.03203 0.009,-0.01199c0.01279,-0.09195 0.0318,-0.23813 0.06299,-0.444c0.04123,-0.27217 0.09391,-0.61685 0.26136,-1.54401c0.10726,-0.59405 0.237,-1.26921 0.39898,-2.01449c0.17624,-0.81087 0.38263,-1.67572 0.633,-2.5815c0.26187,-0.94746 0.53073,-1.9341 1.30133,-3.90401c0.39484,-1.00935 0.86157,-2.00184 1.35751,-2.98649c0.49741,-0.98752 1.03064,-1.95545 1.58249,-2.9055c0.54657,-0.94097 1.10156,-1.85953 2.22669,-3.60801c0.53955,-0.83848 1.07586,-1.64244 1.60949,-2.4105c0.5159,-0.74251 1.02866,-1.44957 1.54648,-2.1135c0.49887,-0.63962 0.97882,-1.25982 2.01068,-2.30932c0.48667,-0.495 0.99689,-0.93732 1.51801,-1.3425c0.51648,-0.40157 1.05981,-0.77051 1.626,-1.11751c0.57917,-0.35495 1.19034,-0.7003 2.52265,-1.37334c0.71567,-0.36152 1.47143,-0.72049 2.26202,-1.07249c0.81208,-0.36156 1.65042,-0.70966 2.51398,-1.0275c0.87118,-0.32065 1.74921,-0.64773 3.55734,-1.06666c0.89466,-0.20728 1.80207,-0.34002 2.7135,-0.4245c0.91693,-0.08501 1.84925,-0.11297 2.7945,-0.09151c0.96402,0.02188 1.95282,0.07237 3.992,0.34933c1.06656,0.14487 2.15186,0.34642 3.249,0.58051c1.10839,0.23648 2.21316,0.51012 3.303,0.8235c1.07959,0.31044 2.14591,0.61876 4.11466,1.42932c0.93576,0.38527 1.81085,0.82233 2.634,1.28101c0.79553,0.4433 1.5409,0.91546 2.23801,1.407c0.67548,0.4763 1.3201,0.95689 2.46133,1.97866c0.54584,0.4887 1.04987,0.99454 1.52399,1.5045c0.46448,0.49961 0.89969,1.01075 1.30801,1.5315c0.40436,0.51573 0.79688,1.03738 1.50135,2.13067c0.35406,0.54949 0.68695,1.11815 1.00049,1.704c0.31729,0.59288 0.61425,1.2081 0.88351,1.84801c0.27472,0.65286 0.54819,1.32777 0.94931,2.78132c0.20941,0.75884 0.37085,1.54972 0.50101,2.358c0.13137,0.81591 0.22317,1.64101 0.26699,2.46601c0.0434,0.8173 0.08539,1.63038 -0.10131,3.17599c-0.08945,0.7405 -0.2605,1.45523 -0.48001,2.1465c-0.22059,0.69464 -0.50638,1.3808 -0.84,2.06551c-0.34604,0.71014 -0.74222,1.43617 -1.67999,2.95466c-0.5091,0.82433 -1.06614,1.66878 -1.64402,2.53499c-0.58743,0.88051 -1.18731,1.75806 -1.78799,2.625c-0.58871,0.8497 -1.16202,1.66904 -2.23468,3.17334c-0.47934,0.67224 -0.92551,1.29019 -1.3425,1.8615c-0.38974,0.53396 -0.76053,1.03519 -1.11749,1.5105c-0.34473,0.459 -0.68442,0.90707 -1.37332,1.79467c-0.3537,0.45574 -0.71823,0.91901 -1.09052,1.39049c-0.37836,0.47919 -0.76343,0.96387 -1.1535,1.45351c-0.39359,0.49403 -0.79068,0.99064 -1.58933,1.98933c-0.39984,0.5 -0.79959,0.99927 -1.19549,1.5c-0.39475,0.49927 -0.78559,0.99854 -1.16852,1.5c-0.38071,0.49855 -0.76016,0.99323 -1.46933,2c-0.34988,0.49671 -0.68381,0.9984 -1.00949,1.5c-0.32361,0.49842 -0.63779,0.9991 -0.9465,1.5c-0.30762,0.4991 -0.60996,0.99964 -1.21067,2c-0.30014,0.49982 -0.59979,0.99935 -0.89551,1.5c-0.29495,0.49935 -0.58593,0.99871 -0.8685,1.5c-0.28112,0.49872 -0.56207,0.99416 -1.06933,2c-0.25049,0.49668 -0.48248,0.9943 -0.7005,1.48651c-0.21256,0.47986 -0.40769,0.94941 -0.5835,1.40549c-0.16769,0.43503 -0.32675,0.84711 -0.54931,1.608c-0.09742,0.33301 -0.16697,0.63916 -0.21903,0.91501c-0.04611,0.24433 -0.07544,0.45972 -0.09299,0.64499c-0.01464,0.15479 -0.02111,0.27997 -0.02133,0.44c-0.00006,0.03501 0.00449,0.04019 0.01349,0.01502c0.01956,-0.05466 0.04694,-0.14084 0.09451,-0.25501c0.06089,-0.14615 0.13681,-0.32641 0.392,-0.76001c0.15851,-0.26932 0.35889,-0.56405 0.594,-0.88949c0.26312,-0.36426 0.56906,-0.75928 0.918,-1.1865c0.38339,-0.46942 0.8088,-0.97824 1.82135,-2.09066c0.56848,-0.62456 1.19134,-1.27662 1.84799,-1.96651c0.68731,-0.72212 1.40378,-1.46935 2.13598,-2.2455c0.74982,-0.79482 1.51795,-1.59953 3.01603,-3.28801c0.75204,-0.84763 1.48016,-1.7105 2.20498,-2.56349c0.71518,-0.84168 1.4148,-1.67024 2.11499,-2.46451c0.67996,-0.77132 1.3227,-1.53334 2.68003,-2.80533c0.62838,-0.5889 1.27005,-1.09979 1.90948,-1.5435c0.61081,-0.42384 1.22812,-0.78539 1.8465,-1.0845c0.59866,-0.28959 1.19702,-0.55153 2.41067,-0.872c0.59473,-0.15704 1.19864,-0.25436 1.79999,-0.3285c0.59882,-0.07384 1.19974,-0.11499 1.80002,-0.1395c0.59979,-0.02449 1.19998,-0.03101 2.39999,-0.032c0.60068,-0.0005 1.20566,-0.00062 1.818,0.02699c0.62512,0.0282 1.26763,0.08268 1.92599,0.18902c0.68747,0.11103 1.41611,0.24079 2.92267,0.78399c0.83096,0.29962 1.68344,0.70273 2.5665,1.161c0.92956,0.48242 1.87848,1.03534 2.84552,1.647c1.00442,0.63532 2.03466,1.31079 4.08798,2.85867c1.06582,0.80349 2.11911,1.66339 3.16351,2.5575c1.05042,0.89924 2.0759,1.82765 3.06449,2.7825c0.97705,0.94371 1.93917,1.87445 3.60534,3.82666c0.79261,0.92867 1.50705,1.88029 2.15702,2.85001c0.64617,0.96406 1.23727,1.97322 1.77899,3.03001c0.557,1.08661 1.0997,2.23636 2.06399,4.78665c0.52338,1.38422 1.0076,2.86035 1.48651,4.401c0.49344,1.58734 0.96158,3.22113 1.40549,4.887c0.44717,1.67819 0.88614,3.36047 1.608,6.712c0.3515,1.63199 0.6532,3.24158 0.91049,4.82849c0.25315,1.56125 0.46097,3.10718 0.6135,4.6395c0.151,1.51691 0.29074,3.02704 0.30936,6.03201c0.00927,1.49964 -0.05909,2.99823 -0.198,4.48651c-0.13852,1.48416 -0.35278,2.95765 -0.66602,4.40549c-0.31234,1.44385 -0.64197,2.89856 -1.80267,5.608c-0.58325,1.36148 -1.32834,2.66651 -2.16449,3.93302c-0.85306,1.29211 -1.83084,2.54736 -2.9115,3.77099c-1.11536,1.26294 -2.31836,2.5343 -5.09067,4.96265c-1.46551,1.28369 -3.04242,2.52014 -4.66949,3.741c-1.63568,1.22732 -3.29883,2.40017 -4.96649,3.50701c-1.62244,1.07685 -3.18561,2.11445 -6.19736,3.75199c-1.33618,0.7265 -2.60602,1.31741 -3.80399,1.80002c-1.11514,0.44925 -2.19043,0.80349 -3.22799,1.07998c-0.999,0.26621 -1.98807,0.47754 -3.96802,0.78669c-1.00763,0.15731 -2.03534,0.28552 -3.07648,0.40499c-1.05087,0.12058 -2.1106,0.22504 -3.17551,0.31501c-1.06607,0.09005 -2.13125,0.17447 -4.24801,0.28c-1.04532,0.05212 -2.08521,0.08499 -3.12299,0.10498c-1.03958,0.02002 -2.08536,0.02493 -3.14099,0.01501c-1.06973,-0.01004 -2.15784,-0.02713 -4.40268,-0.11999c-1.16431,-0.04816 -2.35217,-0.11561 -3.55801,-0.19053c-1.21817,-0.07571 -2.44214,-0.16143 -3.66599,-0.25348c-1.21817,-0.09161 -2.42441,-0.18609 -4.776,-0.38934c-1.13534,-0.09814 -2.24179,-0.19827 -3.31949,-0.30899c-1.05163,-0.10803 -2.07736,-0.22507 -3.07651,-0.363c-0.97723,-0.13492 -1.93634,-0.26481 -3.77066,-0.66135c-0.8944,-0.19336 -1.76794,-0.42972 -2.62802,-0.68549c-0.85733,-0.25494 -1.70727,-0.53808 -2.556,-0.8385c-0.85666,-0.30322 -1.71884,-0.62674 -3.48266,-1.30932c-0.91211,-0.35297 -1.84955,-0.7229 -2.82599,-1.09501c-1.01822,-0.38803 -2.08853,-0.78601 -3.22202,-1.18499c-1.19708,-0.42139 -2.46698,-0.86481 -5.28531,-1.72c-1.54327,-0.4683 -3.17739,-0.92203 -4.87802,-1.38602c-1.75,-0.47748 -3.5383,-0.94876 -5.34597,-1.422c-1.81098,-0.47409 -3.61249,-0.93451 -7.10935,-1.85867c-1.6702,-0.44141 -3.27516,-0.87555 -4.81199,-1.29599c-1.46579,-0.401 -2.85486,-0.78665 -4.16401,-1.15201c-1.22552,-0.34201 -2.36187,-0.66415 -4.35733,-1.21866c-0.85183,-0.23672 -1.61669,-0.44644 -2.3085,-0.62851c-0.62959,-0.16571 -1.21156,-0.31231 -1.7595,-0.43948c-0.52443,-0.12171 -1.03978,-0.23621 -2.09867,-0.43201c-0.56353,-0.10419 -1.15423,-0.20145 -1.76699,-0.2955c-0.62992,-0.09668 -1.27425,-0.18698 -1.92901,-0.26849c-0.65992,-0.08219 -1.32153,-0.16388 -2.63732,-0.26935c-0.64418,-0.05164 -1.27721,-0.08457 -1.89602,-0.1095c-0.60253,-0.02429 -1.1873,-0.03818 -1.75199,-0.04648c-0.54264,-0.00796 -1.06133,-0.01001 -2.01867,-0.01068c-0.43533,-0.0003 -0.84266,0 -1.22399,0c-0.35733,0 -0.69268,0 -1.008,0c-0.29733,0 -0.57867,0 -1.10133,0c-0.24501,0 -0.48002,0 -0.70501,0c-0.21499,0 -0.41999,0 -0.615,0c-0.185,0 -0.36,0 -0.67999,0c-0.14518,0 -0.28135,0 -0.4095,0c-0.12117,0 -0.23635,0 -0.34652,0c-0.10615,0 -0.20932,0 -0.41066,0c-0.09983,0 -0.19867,0 -0.2955,0c-0.09382,0 -0.18367,0 -0.26849,0c-0.07884,0 -0.15068,0.00153 -0.26934,0c-0.04518,-0.00058 -0.08697,-0.00363 -0.10951,-0.03149c-0.03024,-0.03739 -0.0392,-0.11411 -0.04649,-0.22052c-0.01015,-0.14795 -0.01074,-0.34531 -0.01067,-0.91464c0.00006,-0.38517 0.00125,-0.84162 0.027,-1.36951c0.02932,-0.60159 0.08609,-1.27789 0.18901,-2.02649c0.11384,-0.82809 0.24861,-1.74124 0.78399,-3.77069c0.30225,-1.14569 0.70118,-2.34988 1.13851,-3.61499c0.45694,-1.32178 0.96116,-2.67838 1.4895,-4.065c0.53726,-1.41007 1.09569,-2.82627 2.20532,-5.65332c0.54584,-1.39066 1.08356,-2.76633 1.614,-4.13251c0.52823,-1.3605 1.05347,-2.72137 1.578,-4.08749c0.52815,-1.37555 1.06035,-2.76603 2.14134,-5.61335c0.55568,-1.46365 1.1176,-2.95239 1.6905,-4.458c0.57775,-1.51841 1.16091,-3.04306 1.75351,-4.56598c0.59109,-1.51908 1.17559,-3.03019 2.38932,-5.97602c0.5925,-1.43804 1.19439,-2.84185 1.79551,-4.21499c0.58961,-1.34686 1.18042,-2.6615 1.76849,-3.94501c0.57567,-1.25647 1.14522,-2.4826 2.26933,-4.83999c0.54222,-1.13709 1.08109,-2.24553 1.60051,-3.3375c0.51122,-1.07471 1.01035,-2.13867 1.48349,-3.2025c0.47051,-1.05789 0.94445,-2.1139 1.74935,-4.29333c0.40753,-1.10347 0.77096,-2.23479 1.11898,-3.38101c0.35073,-1.15514 0.6774,-2.32607 0.99302,-3.50699c0.31707,-1.1864 0.62074,-2.38082 1.22132,-4.77867c0.30054,-1.19991 0.60061,-2.40024 0.88651,-3.60451c0.2861,-1.20508 0.56021,-2.41443 0.8055,-3.63149c0.24574,-1.21934 0.49539,-2.44349 0.80799,-4.93068c0.1574,-1.25225 0.25466,-2.518 0.32851,-3.79049c0.07419,-1.27825 0.11502,-2.56354 0.1395,-3.8535c0.02453,-1.29373 0.03,-2.59067 0.03199,-5.18933c0.001,-1.29934 0,-2.59467 0,-3.88201c0,-1.27533 0,-2.53467 0,-3.774c0,-1.21533 0.00019,-2.40266 0,-4.67732c-0.00009,-1.08151 0.00022,-2.13201 -0.0045,-3.16051c-0.00465,-1.01552 -0.01347,-2.02704 -0.03149,-3.0435c-0.01827,-1.03056 -0.03806,-2.08444 -0.13068,-4.29599c-0.04918,-1.17427 -0.11598,-2.39235 -0.19949,-3.64801c-0.08569,-1.28838 -0.1891,-2.60266 -0.3165,-3.93599c-0.12886,-1.34872 -0.25946,-2.70816 -0.65066,-5.416c-0.19466,-1.3474 -0.43004,-2.68243 -0.6765,-4.00951c-0.24558,-1.32228 -0.50966,-2.63661 -0.77551,-3.9465c-0.26516,-1.30644 -0.54424,-2.60693 -1.04799,-5.21066c-0.2513,-1.29883 -0.48473,-2.59941 -0.70951,-3.9c-0.22456,-1.29942 -0.43829,-2.59968 -0.6465,-3.90001c-0.20811,-1.29969 -0.40968,-2.59993 -0.81066,-5.19999c-0.20052,-1.30014 -0.39998,-2.60176 -0.609,-3.9045c-0.20964,-1.30661 -0.4274,-2.61726 -0.66301,-3.9315c-0.23701,-1.32213 -0.47458,-2.65451 -1.06132,-5.33067c-0.2975,-1.35689 -0.63018,-2.71517 -0.98101,-4.0725c-0.35051,-1.35603 -0.72091,-2.70019 -1.10699,-4.0275c-0.38135,-1.31103 -0.76317,-2.59927 -1.57868,-5.06667c-0.39112,-1.1834 -0.79498,-2.32532 -1.19549,-3.43349c-0.39026,-1.07981 -0.78267,-2.12939 -1.1685,-3.15451c-0.37784,-1.00387 -0.75794,-1.9853 -1.46933,-3.912c-0.34856,-0.94402 -0.68387,-1.88132 -1.00501,-2.81399c-0.31885,-0.92603 -0.62483,-1.85115 -0.91499,-2.778c-0.28984,-0.92584 -0.57695,-1.85408 -1.08,-3.74134c-0.25374,-0.95192 -0.4841,-1.91268 -0.70951,-2.8725c-0.22392,-0.95352 -0.43608,-1.89839 -0.6465,-2.8275c-0.20591,-0.90922 -0.39663,-1.79643 -0.81067,-3.46667c-0.19389,-0.78216 -0.39637,-1.52596 -0.5955,-2.238c-0.19164,-0.68528 -0.38432,-1.34514 -0.5685,-1.986c-0.17947,-0.62448 -0.36339,-1.23404 -0.66933,-2.44266c-0.15132,-0.59777 -0.28364,-1.1939 -0.40499,-1.782c-0.11858,-0.57461 -0.22294,-1.13416 -0.31501,-1.674c-0.08781,-0.51487 -0.16797,-1.00161 -0.28,-1.87734c-0.04863,-0.38007 -0.08364,-0.7238 -0.10951,-1.0335c-0.02324,-0.27833 -0.03799,-0.52893 -0.04649,-0.75449c-0.00766,-0.20346 -0.01,-0.388 -0.01067,-0.71201c-0.00029,-0.145 0,-0.28 0,-0.405c0,-0.115 0,-0.22 0,-0.315c0,-0.085 0,-0.16 0,-0.28c0,-0.04533 0,-0.08266 0,-0.114c0,-0.02733 0,-0.05266 0,-0.07799c0,-0.02734 0,-0.05867 0,-0.14134c0,-0.05467 0,-0.11733 0,-0.186c0,-0.07267 0,-0.14733 0,-0.222c0,-0.07267 0,-0.14134 0,-0.25867c0,-0.04533 0,-0.08266 0,-0.114c0,-0.02733 0,-0.05266 0,-0.07799c0,-0.02734 0,-0.05867 0,-0.14134c0,-0.05483 0,-0.11867 0,-0.1905c0,-0.07883 0,-0.16367 0,-0.2535c0,-0.09383 0,-0.19066 0,-0.38933c0,-0.1 0,-0.2 0,-0.30001c0,-0.1 0,-0.19999 0,-0.29999c0,-0.1 0,-0.20001 0,-0.4c0,-0.09984 0,-0.19867 0,-0.29551c0,-0.09383 0,-0.18366 0,-0.2685c0,-0.07882 -0.00021,-0.15066 0,-0.26933c0.00009,-0.04533 -0.00056,-0.08292 0.0045,-0.114c0.0045,-0.02766 0.01485,-0.05361 0.0315,-0.07799c0.0195,-0.02855 0.04907,-0.05893 0.13067,-0.14134c0.05448,-0.05501 0.11798,-0.11805 0.18599,-0.1905c0.07338,-0.07818 0.1489,-0.1624 0.222,-0.2535c0.07428,-0.09257 0.15236,-0.18456 0.25867,-0.38933c0.05055,-0.09739 0.08466,-0.19912 0.10951,-0.30001c0.02445,-0.09924 0.03832,-0.19981 0.0465,-0.29999c0.00814,-0.09986 0.00999,-0.20001 0.01066,-0.4c0.00034,-0.09984 0,-0.19867 0,-0.29551c0,-0.09383 0,-0.18366 0,-0.2685c0,-0.07882 0,-0.15066 0,-0.26933c0,-0.04533 0,-0.08266 0,-0.114c0,-0.02733 0,-0.05266 0,-0.07799c0,-0.02734 0,-0.05867 0,-0.14134c0,-0.05467 0,-0.11733 0,-0.186c0,-0.07267 0,-0.14733 0,-0.222c0,-0.07267 0,-0.14134 0,-0.25867c0,-0.04533 0,-0.08266 0,-0.114c0,-0.02733 0,-0.05266 0,-0.07799c0,-0.02734 0,-0.05867 0,-0.14134c0,-0.05467 0,-0.11733 0,-0.186c0,-0.07267 0,-0.14733 0,-0.222l0,-0.07267l0,-0.06867" id="svg_31" stroke-linecap="null" stroke-linejoin="null" stroke-dasharray="null" stroke-width="5" stroke="#000000" fill="#ff7f00"/>
  <path d="m83,137c1,-1.57466 0.9955,-2.44286 1,-3.35184c0.0045,-0.90902 0.08324,-1.58245 0.44317,-2.63383c0.25394,-0.74179 0.61162,-1.55959 0.81416,-1.985c0.415,-0.87163 1.14898,-2.09722 1.69084,-2.8105c0.25949,-0.3416 0.8178,-0.93883 1.71849,-2.05217c0.37975,-0.46939 0.98692,-1.4252 2,-1.83332c0.64282,-0.25897 1.46619,-0.27776 2.34001,-0.348c0.45393,-0.03649 1.82963,-0.13182 2.712,-0.27201c0.88076,-0.13993 1.3258,-0.2435 2.24833,-0.47499c1.53791,-0.38591 2.09709,-0.56041 2.68766,-0.72101c0.61209,-0.16643 1.88594,-0.50093 2.54134,-0.65599c0.65928,-0.15598 1.31686,-0.32701 2.63734,-0.528c1.27396,-0.19392 1.89994,-0.225 2.50933,-0.24001c1.17431,-0.02892 1.74931,-0.03981 3.324,0.24001c0.49469,0.0879 1.42659,0.3614 2.29166,0.70832c0.42427,0.17016 1.23919,0.56062 2.44317,1.15901c0.83913,0.41705 1.29393,0.64315 1.786,0.88267c1.12572,0.54796 1.77905,0.86105 3.3125,1.58332c0.89265,0.42046 1.86577,0.87429 2.9145,1.34401c1.10717,0.49589 2.26909,0.9989 3.48149,1.488c1.24059,0.50048 2.49958,1.0159 5.10401,1.83466c1.29117,0.4059 2.58803,0.73636 3.8685,1.03801c1.25433,0.29549 2.48492,0.54909 3.6795,0.78599c1.15111,0.22829 2.25832,0.41947 4.28533,0.84267c0.91839,0.19174 1.77417,0.39533 2.58,0.59551c0.76746,0.19064 1.50293,0.3853 2.22,0.56849c0.70625,0.18044 1.40897,0.37125 2.86667,0.66933c0.76189,0.15579 1.55113,0.28572 2.358,0.405c0.81715,0.1208 1.64148,0.22462 2.466,0.315c0.81751,0.0896 1.6231,0.17229 3.176,0.28c0.73512,0.05098 1.44388,0.0845 2.12849,0.10951c0.66341,0.02423 1.30898,0.03827 1.9395,0.0465c0.61849,0.00807 1.22801,0.00999 2.43201,0.01066c0.60001,0.00034 1.2,0 1.8,0c0.59999,0 1.2,0 1.80001,0c0.59999,0 1.19999,0 2.39999,0c0.59967,0 1.19733,0 1.791,0c0.58766,0 1.16733,0 1.737,0c0.55766,0 1.10133,0.00019 2.13867,0c0.49033,-0.00009 0.96268,0.00026 1.41899,-0.0045c0.44235,-0.00462 0.87279,-0.01312 1.293,-0.03149c0.41249,-0.01802 0.82303,-0.01511 2.02101,-0.1855c0.79486,-0.11306 1.93285,-0.37328 2.62966,-0.57984c0.93386,-0.27684 2.1213,-1.02789 2.72717,-0.41166c0.44623,0.45385 0.14406,1.2767 -0.01517,2.13032c-0.2034,1.09044 -0.39012,1.71623 -0.81734,3.12117c-0.23399,0.76952 -0.50219,1.56746 -0.79199,2.3895c-0.29742,0.8437 -0.604,1.70163 -1.29867,3.40533c-0.34606,0.84872 -0.71436,1.68266 -1.086,2.50951c-0.36971,0.82251 -0.74739,1.6363 -1.122,2.4465c-0.37272,0.80614 -0.75256,1.60434 -1.45866,3.21066c-0.3506,0.79756 -0.68433,1.59827 -1.00501,2.4c-0.3193,0.79829 -0.62441,1.59839 -0.91499,2.40001c-0.28941,0.79841 -0.5733,1.59573 -1.08,3.19999c-0.25197,0.79778 -0.48412,1.59824 -0.71401,2.3955c-0.22879,0.79342 -0.45092,1.58418 -0.67799,2.36851c-0.22562,0.77933 -0.44228,1.55597 -0.94134,3.06932c-0.24674,0.74822 -0.51545,1.48522 -0.7905,2.21851c-0.27561,0.73472 -0.56328,1.46914 -0.8535,2.2095c-0.29346,0.74864 -0.59906,1.50481 -1.18933,3.07199c-0.30417,0.80756 -0.60077,1.63259 -0.8955,2.4675c-0.29595,0.83843 -0.58485,1.67795 -0.86851,2.51251c-0.27998,0.82376 -0.5511,1.63318 -1.06932,3.18666c-0.24539,0.7356 -0.48181,1.44518 -0.7095,2.133c-0.22164,0.66952 -0.43728,1.32503 -0.6465,1.97101c-0.2071,0.63936 -0.4132,1.27612 -0.81067,2.56267c-0.20197,0.65371 -0.39972,1.31474 -0.60001,1.97699c-0.19972,0.66041 -0.39798,1.31529 -0.59999,1.959c-0.19801,0.63096 -0.38611,1.24758 -0.8,2.39733c-0.19368,0.53804 -0.39675,1.04728 -0.60451,1.53301c-0.20172,0.47159 -0.62071,1.3766 -1.08083,2.24832c-0.47039,0.89121 -0.99733,1.80135 -1.26283,2.26685c-0.53101,0.931 -0.80469,1.38281 -1.2825,2.2825c-0.64601,1.2164 -0.96021,1.96118 -1.26933,2.6485c-0.30164,0.67067 -0.81916,1.69632 -1.26934,2.40483c-0.47715,0.75098 -0.74925,1.1176 -1.2825,1.86332c-0.77823,1.08834 -1.25639,1.76468 -1.69082,2.37401c-0.53389,0.74881 -1.23821,1.22643 -1.09067,0.37866c0.15797,-0.90771 0.41179,-1.68896 0.552,-2.14799c0.32732,-1.07153 0.77799,-2.35323 1.04582,-3.08067c0.28792,-0.782 0.60405,-1.60649 0.9435,-2.46601c0.35144,-0.88987 0.7209,-1.79863 1.10551,-2.718c0.38736,-0.92596 1.18326,-2.75546 1.58649,-3.64448c0.39684,-0.87496 0.79845,-1.73374 1.20001,-2.58152c0.39846,-0.84123 0.80019,-1.6759 1.2,-2.50949c0.40019,-0.83441 1.20114,-2.51797 1.59999,-3.37283c0.40116,-0.8598 0.79886,-1.72321 1.20001,-2.58301c0.39885,-0.85486 0.79642,-1.70039 1.2,-2.52899c0.3965,-0.81404 1.19542,-2.36951 1.59967,-3.10284c0.39322,-0.71331 0.79219,-1.40116 1.179,-2.0775c0.38051,-0.66535 0.75583,-1.32318 1.107,-1.98749c0.35017,-0.66243 0.99067,-2.02861 1.2715,-2.7415c0.28331,-0.71922 0.53599,-1.453 0.78149,-2.18701c0.24348,-0.728 0.47215,-1.44928 0.7095,-2.151c0.23078,-0.68227 0.70809,-1.95768 0.97318,-2.53367c0.25281,-0.5493 0.52524,-1.0608 0.80398,-1.54199c0.26885,-0.46409 0.54801,-0.9022 0.82201,-1.326c0.26735,-0.41353 0.78915,-1.21608 1.03133,-1.61817c0.24049,-0.39929 0.69729,-1.2098 0.92134,-1.62066c0.45527,-0.83492 1.16539,-2.14656 1.42149,-2.601c0.53302,-0.94583 0.81668,-1.43428 1.09934,-1.94067c0.58822,-1.05382 0.89132,-1.60399 1.47917,-2.77083c0.30548,-0.60637 0.89715,-1.86675 1.18933,-2.50667c0.2915,-0.63843 0.5748,-1.27327 0.8535,-1.89751c0.27196,-0.60911 1.03442,-2.29873 1.27184,-2.80783c0.44697,-0.95843 0.66935,-1.41072 1.08082,-2.29834c0.61174,-1.31967 0.80388,-1.77801 1.20902,-2.709c0.20576,-0.47282 0.62313,-1.42599 0.85266,-1.89465c0.68483,-1.39836 1.21962,-2.26712 1.49099,-2.68201c0.51986,-0.79475 1.02811,-1.50557 1.71851,-2.37067c0.50447,-0.63212 1.15428,-1.41626 2,-1.5c0.75829,-0.07508 1.41666,0 2.53867,0c1.19465,0 1.99466,0 2.79466,0c0.8,0 2,0 2.804,0c0.4095,0 1.2585,0 2.1675,0c1.5285,0 2.09301,-0.00289 2.6845,0.00267c1.25208,0.0118 1.90677,0.03341 2.57599,0.06934c0.68184,0.03662 1.37664,0.06302 2.76801,0.26132c1.41227,0.20128 2.12327,0.37744 2.85333,0.53867c0.75166,0.166 1.52644,0.35031 2.3325,0.537c0.84061,0.19469 2.64649,0.59598 3.62133,0.79067c1.01582,0.20286 2.06871,0.39698 3.1515,0.57901c1.10289,0.18541 2.22173,0.35626 3.34951,0.50699c1.12693,0.1506 3.35784,0.38929 4.4485,0.47134c1.06941,0.08046 2.11978,0.13435 3.14999,0.17099c1.00983,0.03592 1.99999,0.0536 2.97002,0.063c0.94995,0.0092 2.78998,0.00901 3.67981,0.00901c0.86883,0 1.71567,0 2.53952,0c0.79983,0 1.57464,0 2.32348,0c0.72184,0 2.08051,0.00212 2.71534,-0.00067c0.60385,-0.00266 1.17617,-0.008 1.7145,-0.042c0.50547,-0.0319 0.97861,-0.0832 1.40851,-0.186c0.40119,-0.09593 1.0922,-0.4182 1.35599,-0.65733c0.26141,-0.23696 0.4686,-0.53434 0.6315,-0.85801c0.16687,-0.33157 0.42355,-1.06706 0.58801,-2.25599c0.10944,-0.79114 0.18427,-1.92119 0.10498,-2.57134c-0.13165,-1.07973 -0.72864,-0.75337 -1.08099,0.11267c-0.58411,1.43566 -0.85037,2.443 -1.19333,3.592c-0.3833,1.28412 -0.77475,2.69087 -1.164,4.19999c-0.4086,1.58416 -0.8104,3.22879 -1.164,4.92c-0.71186,3.40473 -0.96463,5.10262 -1.19599,6.78401c-0.23025,1.67341 -0.41501,3.35384 -0.57751,5.04599c-0.16425,1.71055 -0.30313,3.45055 -0.44251,5.226c-0.2897,3.69043 -0.44088,5.61919 -0.60266,7.59868c-0.16522,2.02153 -0.33505,4.07575 -0.49649,6.1545c-0.16256,2.09327 -0.32156,4.1923 -0.45151,6.2895c-0.25689,4.14676 -0.333,6.1826 -0.39999,8.18666c-0.06592,1.97164 -0.11017,3.91063 -0.1485,5.81551c-0.03763,1.86978 -0.06457,3.70375 -0.10351,5.50049c-0.07541,3.47886 -0.13239,5.15963 -0.20533,6.804c-0.07153,1.61297 -0.1611,3.19792 -0.2745,4.75801c-0.11203,1.54127 -0.24216,3.06683 -0.40949,4.57799c-0.33313,3.0086 -0.56143,4.50586 -0.80002,5.99734c-0.23715,1.48258 -0.50045,2.94603 -0.79049,4.383c-0.28482,1.41105 -0.58597,2.78639 -0.92551,4.113c-0.64517,2.5208 -1.02151,3.68743 -1.39999,4.80266c-0.36634,1.07942 -0.75931,2.11875 -1.1745,3.12601c-0.41031,0.99545 -0.84714,1.97498 -1.30951,2.946c-0.94269,1.97964 -1.46698,2.98233 -2,4.00667c-0.54257,1.04271 -1.10599,2.09456 -1.69049,3.15149c-0.59014,1.0671 -1.19553,2.13578 -1.8255,3.19651c-1.26245,2.12571 -1.92803,3.16593 -2.60401,4.20267c-0.68135,1.04498 -1.3909,2.09116 -2.13299,3.14249c-0.75913,1.07547 -1.55648,2.16836 -2.403,3.27749c-1.78673,2.34098 -2.77468,3.54856 -3.79334,4.79468c-1.04225,1.27496 -2.11331,2.55826 -3.19949,3.84448c-1.08582,1.28577 -2.17073,2.55497 -3.24451,3.7995c-2.06363,2.39179 -3.04742,3.51371 -3.98799,4.58936c-0.89946,1.02865 -1.76016,2.00918 -2.58,2.94449c-0.78015,0.89004 -1.52171,1.73483 -2.22,2.53949c-1.28316,1.4786 -1.86005,2.16186 -2.40534,2.80133c-0.51208,0.60049 -0.99273,1.16412 -1.458,1.68002c-0.43639,0.48389 -0.85186,0.93436 -1.278,1.31998c-0.78156,0.70721 -1.19881,0.97082 -1.60134,1.20666c-0.38496,0.22556 -0.77038,0.41019 -1.14149,0.57752c-0.35302,0.15918 -0.69507,0.29285 -1.0065,0.4425c-0.56383,0.27094 -0.79685,0.43485 -1.00267,0.60266c-0.19577,0.15964 -0.36667,0.33201 -0.5325,0.49649c-0.16083,0.15952 -0.31281,0.32218 -0.48749,0.45151c-0.35044,0.25949 -0.57367,0.33753 -0.80802,0.396c-0.25036,0.06247 -0.52916,0.0896 -0.82949,0.08999c-0.32532,0.00043 -0.67789,-0.02932 -1.05449,-0.08999c-0.84552,-0.1362 -1.306,-0.2655 -1.79068,-0.39465c-0.50072,-0.13343 -1.00574,-0.28132 -1.50899,-0.43201c-0.49408,-0.14795 -0.96884,-0.29636 -1.41901,-0.43201c-0.78845,-0.23758 -1.11457,-0.32678 -1.39467,-0.39865c-0.23732,-0.06088 -0.43766,-0.10666 -0.60299,-0.1485c-0.13596,-0.03442 -0.24954,-0.05978 -0.333,-0.10351c-0.13363,-0.07004 -0.17828,-0.13578 -0.20134,-0.20533c-0.02507,-0.07565 -0.02032,-0.17172 0.01351,-0.2745c0.04074,-0.12381 0.12073,-0.26261 0.23849,-0.40949c0.30361,-0.37866 0.54012,-0.57812 0.816,-0.80401c0.32239,-0.26398 0.71892,-0.54654 1.19551,-0.849c0.55076,-0.34952 1.20053,-0.72492 1.96049,-1.11899c1.83686,-0.95248 2.9614,-1.44598 4.18267,-1.99469c1.3033,-0.58557 2.67489,-1.18347 4.086,-1.80298c1.43156,-0.62848 2.86482,-1.25287 4.266,-1.893c2.65866,-1.21467 3.86183,-1.81232 4.97867,-2.39469c1.04893,-0.54697 2.02183,-1.0888 2.922,-1.629c0.85162,-0.51104 1.64695,-1.01974 2.382,-1.539c1.3853,-0.9786 2.00771,-1.49701 2.61066,-2c0.58565,-0.48855 1.1407,-0.97906 1.67401,-1.461c0.51732,-0.46746 1.01094,-0.9292 1.49399,-1.371c0.9194,-0.84088 1.36499,-1.23086 1.804,-1.59866c0.42544,-0.35645 0.84659,-0.6929 1.26451,-1.00949c0.40751,-0.30869 0.81259,-0.60184 1.2195,-0.87451c0.79417,-0.53217 1.1979,-0.77149 1.59999,-0.99732c0.39374,-0.22113 0.7864,-0.4219 1.18051,-0.58652c0.38093,-0.15911 0.75845,-0.29595 1.1355,-0.36148c0.712,-0.12371 1.07086,-0.07971 1.40799,0.01465c0.35543,0.09949 0.71855,0.2966 1.08151,0.57602c0.41736,0.32129 0.85046,0.75659 1.30649,1.29599c1.13037,1.33704 1.72728,2.22336 2.40001,3.20267c0.73788,1.07416 1.50528,2.25744 2.2935,3.543c0.83516,1.36212 1.68602,2.81082 2.51851,4.35299c1.75387,3.24906 2.57007,4.99274 3.38266,6.77466c0.82165,1.80179 1.60052,3.63208 2.328,5.4765c0.7204,1.82648 1.39298,3.63745 1.96799,5.43152c1.09109,3.4043 1.4703,5.03378 1.79999,6.59067c0.31543,1.48962 0.55346,2.93365 0.73202,4.332c0.17288,1.35394 0.29218,2.67703 0.37198,3.97199c0.1557,2.52645 0.1796,3.77285 0.20535,5.00799c0.02555,1.22489 0.03147,2.44019 0.00598,3.64502c-0.02527,1.19522 -0.07202,2.38162 -0.17398,3.55499c-0.2019,2.32392 -0.39383,3.46738 -0.6,4.60001c-0.20523,1.12753 -0.45072,2.24258 -0.72602,3.345c-0.27411,1.09769 -0.57599,2.18341 -0.90597,3.25501c-0.65497,2.12701 -1.02673,3.16678 -1.39603,4.19864c-0.36642,1.0238 -0.74591,2.03253 -1.1355,3.02551c-0.38516,0.98169 -0.77755,1.94626 -1.18048,2.8905c-0.78677,1.84378 -1.19656,2.72965 -1.59601,3.60001c-0.39193,0.85394 -0.78262,1.68872 -1.16101,2.50949c-0.37094,0.80459 -0.7348,1.59308 -1.07098,2.37451c-0.65186,1.51517 -0.93564,2.26382 -1.19733,3.00531c-0.25821,0.73166 -0.48993,1.46527 -0.69,2.20352c-0.19995,0.73786 -0.37628,1.48596 -0.51001,2.24851c-0.27335,1.5585 -0.33881,2.37295 -0.40268,3.20132c-0.065,0.84305 -0.10379,1.70117 -0.129,2.57099c-0.02551,0.87954 -0.03515,1.76733 -0.039,2.66101c-0.0077,1.79733 -0.00265,2.6965 -0.00265,3.59066c0,0.88416 0,1.75333 0,2.60251c0,0.82416 0,1.61832 0,2.37751c0,1.39331 0.00097,2.01864 -0.00133,2.59597c-0.00212,0.53135 -0.00609,1.01877 -0.0195,1.46402c-0.01221,0.40543 -0.02661,0.77362 -0.0645,1.10401c-0.06477,0.56479 -0.13008,0.80035 -0.19867,1.00931c-0.06325,0.19271 -0.1404,0.36709 -0.216,0.5325c-0.07373,0.16128 -0.15427,0.31897 -0.21601,0.48751c-0.13241,0.36149 -0.16575,0.57569 -0.20132,0.80268c-0.03761,0.24002 -0.06592,0.49228 -0.1035,0.75149c-0.03839,0.2648 -0.07748,0.53382 -0.1485,0.79648c-0.14133,0.52268 -0.26291,0.76828 -0.40933,0.99735c-0.15093,0.23611 -0.34787,0.45996 -0.58801,0.66449c-0.2609,0.22216 -0.57703,0.43194 -0.948,0.6195c-0.86748,0.4386 -1.41194,0.60794 -1.996,0.80133c-0.62552,0.20713 -1.29375,0.4032 -1.9935,0.60001c-0.7229,0.20334 -1.46558,0.4003 -2.21849,0.60001c-1.5105,0.40063 -2.25594,0.60003 -2.99334,0.79867c-0.73127,0.19702 -1.45807,0.39298 -2.184,0.58048c-0.72473,0.18716 -1.45107,0.37066 -2.18401,0.53552c-1.47955,0.33279 -2.23681,0.4704 -3.00532,0.59732c-0.78022,0.12885 -1.57775,0.23904 -2.394,0.3255c-0.83449,0.08838 -1.69203,0.15784 -2.57401,0.19049c-1.84181,0.06824 -2.80743,0.03726 -3.79866,0c-1.01586,-0.03818 -2.05253,-0.10388 -3.1065,-0.19049c-1.0701,-0.08795 -2.15195,-0.19553 -3.2415,-0.3255c-2.19803,-0.26221 -3.29616,-0.43008 -4.39333,-0.59601c-1.09416,-0.16546 -2.18146,-0.34054 -3.261,-0.51599c-1.06979,-0.17386 -2.12686,-0.35031 -3.17101,-0.51599c-2.03642,-0.32315 -3.02711,-0.46524 -3.99867,-0.59866c-0.95279,-0.13086 -1.88913,-0.25092 -2.80949,-0.3645c-0.90499,-0.1117 -1.7963,-0.21659 -2.6745,-0.31952c-1.72128,-0.20179 -2.56656,-0.30088 -3.40267,-0.40134c-0.82823,-0.09952 -1.64936,-0.19968 -2.4645,-0.29999c-0.8102,-0.0997 -1.61635,-0.19983 -2.4195,-0.29999c-1.60138,-0.19967 -2.40146,-0.29919 -3.20134,-0.40133c-0.80011,-0.10218 -1.60033,-0.20691 -2.39999,-0.31952c-0.80036,-0.1127 -1.601,-0.23026 -2.4,-0.3645c-1.60209,-0.26917 -2.40133,-0.43097 -3.20134,-0.60267c-0.80436,-0.17263 -1.61097,-0.36294 -2.41949,-0.57449c-0.81688,-0.21371 -1.63963,-0.44577 -2.46451,-0.7095c-1.68837,-0.53983 -2.53995,-0.86136 -3.39732,-1.20532c-0.86982,-0.34894 -1.73941,-0.73313 -2.59652,-1.16852c-0.86724,-0.44055 -1.72966,-0.92072 -2.55149,-1.48349c-1.676,-1.14771 -2.43912,-1.86295 -3.192,-2.59067c-0.75443,-0.72922 -1.46216,-1.49783 -2.1315,-2.28c-0.65455,-0.76486 -1.26125,-1.52896 -1.8165,-2.28c-1.01496,-1.37286 -1.4267,-2.00891 -1.80133,-2.59067c-0.3423,-0.53155 -0.64125,-1.02575 -0.903,-1.48349c-0.23928,-0.41845 -0.44773,-0.80777 -0.633,-1.16851c-0.32962,-0.64182 -0.47137,-0.93424 -0.60667,-1.20932c-0.12899,-0.26227 -0.25142,-0.51639 -0.36451,-0.76801c-0.11224,-0.24976 -0.22055,-0.50372 -0.31948,-0.768c-0.21039,-0.56205 -0.31069,-0.87366 -0.39068,-1.21332c-0.08628,-0.36649 -0.14427,-0.77561 -0.14399,-1.22702c0.0003,-0.50144 0.05928,-1.06519 0.21599,-1.677c0.37628,-1.46909 0.7724,-2.29496 1.208,-3.19599c0.47432,-0.98108 1.04427,-2.00641 1.70101,-3.06451c0.69186,-1.11472 1.45981,-2.25379 2.33099,-3.37949c1.82086,-2.35281 2.89339,-3.46414 3.98,-4.58667c1.09706,-1.13333 2.23611,-2.23334 3.37651,-3.3255c1.13029,-1.08249 2.25888,-2.13217 3.3315,-3.19049c2.04426,-2.017 2.95101,-3.01752 3.78799,-3.99734c0.79994,-0.9365 1.52783,-1.86289 2.19301,-2.77051c0.63577,-0.8675 1.21556,-1.71704 1.74299,-2.5455c0.98461,-1.54654 1.40677,-2.29053 1.80533,-3.00266c0.38118,-0.68109 0.72954,-1.34341 1.03501,-1.9935c0.29425,-0.62622 0.55932,-1.24219 0.76499,-1.85849c0.39782,-1.19205 0.50498,-1.80173 0.60668,-2.39868c0.09981,-0.58588 0.16801,-1.16251 0.2325,-1.72199c0.06213,-0.53918 0.10853,-1.05664 0.1875,-1.54202c0.14299,-0.87884 0.26442,-1.25961 0.40132,-1.59866c0.12677,-0.31397 0.27678,-0.59159 0.432,-0.8385c0.14396,-0.22898 0.29587,-0.4281 0.43201,-0.6135c0.23677,-0.32248 0.33049,-0.46615 0.396,-0.604c0.0583,-0.12268 0.09648,-0.23886 0.10949,-0.345c0.01159,-0.09442 0.00721,-0.18406 -0.02549,-0.25501c-0.06005,-0.13031 -0.13104,-0.16943 -0.196,-0.20132c-0.06662,-0.03272 -0.14089,-0.05176 -0.216,-0.06449c-0.0743,-0.01257 -0.1473,-0.01754 -0.21601,-0.0195c-0.11728,-0.00335 -0.16437,-0.00348 -0.21066,0.004c-0.05733,0.00925 -0.13391,0.03583 -0.24001,0.078c-0.1475,0.05863 -0.34353,0.14484 -0.59999,0.258c-0.73396,0.32388 -1.22801,0.54166 -1.79733,0.80533c-0.63892,0.2959 -1.33279,0.63089 -2.061,1.01999c-0.76818,0.41046 -1.55977,0.85602 -2.331,1.38c-1.57774,1.07196 -2.29443,1.72382 -2.98668,2.39734c-0.69687,0.67804 -1.35188,1.41046 -1.974,2.181c-0.62887,0.77893 -1.22744,1.59732 -1.79399,2.45099c-1.15312,1.73752 -1.67433,2.66235 -2.19999,3.58935c-0.5257,0.92707 -1.02727,1.86094 -1.50602,2.793c-0.47049,0.91602 -0.9154,1.81821 -1.32599,2.70301c-0.77261,1.66501 -1.09912,2.45074 -1.40133,3.20266c-0.29056,0.7229 -0.55474,1.43235 -0.79351,2.13599c-0.23721,0.6991 -0.45739,1.4083 -0.65849,2.13599c-0.42168,1.52591 -0.60681,2.34887 -0.804,3.20135c-0.2029,0.87717 -0.40053,1.77454 -0.60001,2.6835c-0.20051,0.9137 -0.39701,1.82633 -0.6,2.72849c-0.39421,1.75198 -0.59693,2.58624 -0.79866,3.38934c-0.19405,0.77252 -0.38851,1.51123 -0.58051,2.21549c-0.18277,0.67041 -0.3616,1.30429 -0.53549,1.90051c-0.31492,1.07977 -0.4621,1.5599 -0.60133,2.004c-0.12956,0.4132 -0.25542,0.79849 -0.38401,1.15799c-0.12225,0.34179 -0.24656,0.66797 -0.384,0.97799c-0.27075,0.61078 -0.43545,0.90653 -0.59999,1.20667c-0.16678,0.30423 -0.34239,0.60876 -0.51601,0.91952c-0.17573,0.31458 -0.35376,0.63309 -0.516,0.96448c-0.33052,0.67502 -0.46747,1.03491 -0.59999,1.40402c-0.13629,0.37958 -0.26132,0.77787 -0.38401,1.194c-0.12811,0.43454 -0.25306,0.89255 -0.384,1.374c-0.28352,1.04242 -0.43594,1.60748 -0.60266,2.19732c-0.17322,0.61286 -0.35687,1.24363 -0.55501,1.887c-0.20183,0.65533 -0.41252,1.31726 -0.64499,1.97702c-0.4651,1.32 -0.72924,1.96185 -0.99867,2.59332c-0.26633,0.62421 -0.54562,1.23312 -0.83549,1.8255c-0.28492,0.58227 -0.57672,1.14752 -0.88051,1.69049c-0.58534,1.04623 -0.89401,1.53171 -1.19867,1.99869c-0.2955,0.45294 -0.59509,0.8836 -0.89999,1.28998c-0.29531,0.39358 -0.59229,0.76678 -0.9,1.11001c-0.5856,0.6532 -0.89517,0.9364 -1.20401,1.20267c-0.30435,0.26239 -0.62334,0.50546 -0.95849,0.729c-0.34092,0.22736 -0.70423,0.44181 -1.09351,0.63898c-0.83423,0.42255 -1.30603,0.60645 -1.79334,0.80002c-0.49803,0.19784 -1.00428,0.38428 -1.50898,0.561c-0.49268,0.17252 -0.96813,0.33118 -1.41901,0.47098c-0.78728,0.24408 -1.11517,0.33118 -1.40266,0.40134c-0.25597,0.06247 -0.49292,0.11041 -0.72,0.1485c-0.22628,0.03793 -0.46338,0.06869 -0.72,0.10351c-0.61344,0.08326 -0.98735,0.13852 -1.40534,0.20133c-0.45602,0.06851 -0.9438,0.1427 -1.45799,0.216c-0.53381,0.07611 -1.08142,0.15228 -1.638,0.216c-1.11092,0.1272 -1.65698,0.16541 -2.19335,0.19999c-0.528,0.03402 -1.04933,0.05856 -1.56449,0.08401c-0.51017,0.02521 -1.01667,0.04761 -1.5195,0.08402c-1.00211,0.07257 -1.50335,0.13577 -2.016,0.19998c-0.53504,0.06702 -1.1023,0.14438 -1.7145,0.216c-0.66645,0.07797 -1.39894,0.15656 -2.2095,0.216c-1.89321,0.13886 -2.99686,0.16736 -4.19334,0.19867c-1.2742,0.03336 -2.61064,0.05194 -3.99299,0.06449c-1.41231,0.01281 -2.83867,0.01758 -4.263,0.0195c-2.77867,0.00372 -4.10451,0.00311 -5.38533,-0.00131c-1.24085,-0.00431 -2.44678,-0.01334 -3.62251,-0.039c-1.15095,-0.02512 -2.28238,-0.05976 -3.3975,-0.129c-2.20839,-0.13715 -3.30728,-0.2623 -4.40132,-0.40268c-1.08871,-0.13968 -2.16481,-0.30844 -3.222,-0.51001c-1.04158,-0.19861 -2.06019,-0.41919 -3.042,-0.69c-1.8861,-0.52024 -2.76226,-0.85422 -3.60267,-1.20398c-0.82578,-0.34366 -1.6245,-0.73261 -2.39701,-1.16852c-0.77988,-0.44009 -1.55088,-0.93088 -2.307,-1.48349c-1.5961,-1.1665 -2.3869,-1.86774 -3.19999,-2.60266c-0.8414,-0.7605 -1.67765,-1.57779 -2.49301,-2.45551c-0.83315,-0.89688 -1.65091,-1.84167 -2.403,-2.8605c-1.53216,-2.07556 -2.1732,-3.22681 -2.79466,-4.39465c-0.62762,-1.17945 -1.19577,-2.40476 -1.719,-3.6615c-0.52768,-1.26743 -1.01168,-2.56458 -1.449,-3.88651c-0.88116,-2.66357 -1.24375,-4.02786 -1.60134,-5.39468c-0.35812,-1.36893 -0.68313,-2.74799 -0.97049,-4.1355c-0.28733,-1.3873 -0.54467,-2.78049 -0.7455,-4.18048c-0.40066,-2.79297 -0.51144,-4.19864 -0.59467,-5.608c-0.08394,-1.42121 -0.11378,-2.86573 -0.0765,-4.33652c0.03819,-1.5069 0.13459,-3.05814 0.3285,-4.65149c0.41122,-3.37897 0.79354,-5.15588 1.19733,-6.98801c0.41409,-1.87887 0.8958,-3.77554 1.4325,-5.673c0.53668,-1.89737 1.1106,-3.76816 1.7475,-5.58298c1.22048,-3.47769 1.91023,-5.07278 2.59201,-6.58801c0.65468,-1.45502 1.33705,-2.83252 2.0355,-4.14151c0.67672,-1.26825 1.372,-2.48135 2.08049,-3.64648c1.37616,-2.26316 2.09568,-3.34095 2.79467,-4.40934c0.68805,-1.05163 1.37262,-2.07959 2.0415,-3.08999c0.65512,-0.98963 1.29765,-1.95575 1.9065,-2.91001c1.16882,-1.83187 1.695,-2.72814 2.20267,-3.6c0.49391,-0.84821 0.96417,-1.68143 1.43249,-2.48999c0.4584,-0.79141 0.90847,-1.56836 1.38751,-2.31c0.94103,-1.45688 1.46519,-2.1391 2.00667,-2.79868c0.53874,-0.65625 1.10872,-1.28195 1.71,-1.87051c0.59898,-0.5863 1.22403,-1.1442 1.88999,-1.64548c1.32942,-1.00067 2.06159,-1.4082 2.796,-1.79867c0.7329,-0.38965 1.48641,-0.73386 2.25151,-1.03501c0.75919,-0.29882 1.52533,-0.56027 2.2965,-0.76501c1.50598,-0.39984 2.25904,-0.5083 2.99466,-0.60132c0.72032,-0.09106 1.43032,-0.14185 2.1255,-0.15451c0.67972,-0.01239 1.34521,0.00586 1.9905,0.0705c1.24257,0.12445 1.83198,0.25485 2.39733,0.40133c0.55057,0.14264 1.07836,0.32126 1.5705,0.54901c0.48298,0.22351 0.94496,0.48533 1.3455,0.819c0.80501,0.67066 1.1089,1.13175 1.40134,1.59333c0.29676,0.46841 0.54794,0.97049 0.77399,1.48352c0.22463,0.50983 0.41743,1.02399 0.594,1.5285c0.33164,0.94757 0.46852,1.38532 0.60134,1.79065c0.12278,0.37469 0.23371,0.71909 0.3255,1.035c0.08258,0.28421 0.15477,0.538 0.1905,0.76502c0.05629,0.35767 0.04638,0.50037 0.00267,0.59198c-0.02977,0.06238 -0.10138,0.07407 -0.15151,0.018c-0.08272,-0.09246 -0.1438,-0.27493 -0.19649,-0.522c-0.15378,-0.72098 -0.16807,-1.22128 -0.19468,-1.79733c-0.02998,-0.64932 -0.03755,-1.36542 -0.02549,-2.13901c0.01283,-0.82382 0.04416,-1.69012 0.10949,-2.58899c0.13603,-1.87134 0.26136,-2.82559 0.40268,-3.78799c0.14293,-0.97339 0.31794,-1.95307 0.52949,-2.93552c0.21369,-0.99237 0.45725,-1.98917 0.7545,-2.9805c0.60287,-2.01059 0.99687,-3.00165 1.39334,-3.996c0.39754,-0.99707 0.82215,-1.98212 1.248,-2.961c0.42218,-0.97046 0.85041,-1.92377 1.248,-2.871c0.76832,-1.83054 1.0974,-2.72507 1.39599,-3.60666c0.2943,-0.8689 0.55682,-1.74292 0.79351,-2.62649c0.23943,-0.89383 0.45813,-1.81235 0.6585,-2.76151c0.42334,-2.00534 0.60779,-3.08246 0.80266,-4.19998c0.20092,-1.15213 0.39422,-2.33414 0.5805,-3.53851c0.18843,-1.21828 0.369,-2.44494 0.5355,-3.6735c0.32923,-2.42927 0.46754,-3.62024 0.59867,-4.79068c0.1288,-1.14958 0.2441,-2.27961 0.345,-3.39c0.09903,-1.08964 0.1866,-2.15954 0.255,-3.20999c0.1328,-2.03921 0.17077,-3.03099 0.19867,-4.00933c0.02772,-0.97202 0.03801,-1.94539 0.0255,-2.9265c-0.01271,-0.99629 -0.04473,-2.01499 -0.1095,-3.0615c-0.13683,-2.21098 -0.26425,-3.38375 -0.4,-4.59867c-0.13972,-1.25048 -0.30406,-2.52626 -0.4905,-3.819c-0.18817,-1.30465 -0.39292,-2.61121 -0.62551,-3.909c-0.45756,-2.55321 -0.7267,-3.78671 -0.99866,-4.996c-0.26815,-1.19239 -0.5547,-2.36803 -0.855,-3.5325c-0.29971,-1.16221 -0.61539,-2.32296 -0.945,-3.48749c-0.67062,-2.36934 -1.03255,-3.57653 -1.39866,-4.80001c-0.36953,-1.23486 -0.74769,-2.47427 -1.13551,-3.7125c-0.38685,-1.23511 -0.77758,-2.46035 -1.1805,-3.6675c-0.78681,-2.35733 -1.19502,-3.49072 -1.59999,-4.60133c-0.39942,-1.09537 -0.80716,-2.17682 -1.21951,-3.252c-0.41299,-1.07685 -0.83601,-2.15813 -1.2645,-3.252c-0.88067,-2.24826 -1.33741,-3.41196 -1.79866,-4.60401c-0.47011,-1.21493 -0.94379,-2.45106 -1.416,-3.70649c-0.47716,-1.26857 -0.95295,-2.54897 -1.416,-3.84151c-0.9286,-2.59198 -1.36684,-3.89356 -1.79467,-5.18933c-0.42347,-1.2826 -0.82708,-2.55158 -1.206,-3.80249c-0.3703,-1.22248 -0.71862,-2.4153 -1.026,-3.5775c-0.57863,-2.18782 -0.80065,-3.21684 -1,-4.19467c-0.18891,-0.92665 -0.34523,-1.80831 -0.474,-2.6445c-0.12153,-0.78923 -0.21959,-1.53557 -0.294,-2.23951c-0.13529,-1.28006 -0.17076,-1.86131 -0.204,-2.40266c-0.03088,-0.50302 -0.05137,-0.96927 -0.0645,-1.39951c-0.01204,-0.39511 -0.01752,-0.75631 -0.0195,-1.08448c-0.00337,-0.56133 -0.00239,-0.7967 0,-1.00402c0.00209,-0.18133 0.00933,-0.33865 0.0195,-0.474l0.01517,-0.11532l0.02116,-0.09734l0.02817,-0.08133" id="svg_26" stroke-linecap="null" stroke-linejoin="null" stroke-dasharray="null" stroke-width="5" stroke="#000000" fill="#ffaa56"/>
  <path d="m346,50c0.94284,4.133 1.02939,5.16811 0.97867,5.9c-0.05893,0.85054 -0.30905,2.10063 -0.42166,2.629c-0.12442,0.58371 -0.42771,1.88731 -0.59867,2.596c-0.17834,0.73933 -0.36676,1.50215 -0.561,2.283c-0.39612,1.59231 -0.59662,2.39168 -0.79733,3.188c-0.19928,0.79068 -0.39814,1.57249 -0.60001,2.3415c-0.19818,0.75498 -0.3949,1.49244 -0.60001,2.2065c-0.39032,1.35882 -0.59497,1.99279 -0.79867,2.59733c-0.38159,1.13244 -0.57773,1.65554 -0.94415,2.63084c-0.48688,1.29587 -0.64689,1.68106 -1.02118,2.7665c-0.2323,0.67363 -0.44269,1.3417 -0.736,2.38266c-0.20562,0.72978 -0.39297,1.48058 -0.69998,2.59467c-0.29333,1.06453 -0.50049,1.73119 -0.70001,2.384c-0.30069,0.98378 -0.60199,2.02079 -0.79999,2.75267c-0.20202,0.74679 -0.4003,1.49459 -0.70001,2.58067c-0.28229,1.02292 -0.4845,1.70639 -0.47134,2.43366c0.02246,1.24049 0.40323,2.18991 0.6,2.6955c0.20554,0.52809 0.70828,1.60047 0.98935,2.13667c0.28159,0.5372 1.17688,2.06084 1.48065,2.52883c0.58127,0.89551 0.87757,1.31158 1.44419,2.10583c0.78643,1.10241 1.26202,1.78881 1.74249,2.41951c0.46411,0.60922 0.94223,1.21051 1.85782,1.92533c0.64816,0.50604 1.41775,0.92411 1.81418,1.14666c0.82739,0.46451 2.16351,1.19728 2.62933,1.45733c0.95831,0.535 1.45081,0.80482 1.95999,1.05601c1.0318,0.50899 2.11545,0.94183 2.67502,1.11833c1.13147,0.35687 1.72327,0.4791 2.31998,0.60134c1.21673,0.24922 1.84442,0.34266 3.125,0.54166c0.65457,0.10171 1.9902,0.29785 2.66934,0.38933c0.68454,0.09221 1.37427,0.17828 2.06851,0.25351c0.69641,0.07545 2.09463,0.20773 3.49149,0.26916c0.69015,0.03035 1.3721,0.03839 2.0415,0.0255c0.65469,-0.01262 1.91458,-0.05942 3.0625,-0.27083c1.04941,-0.19327 1.53702,-0.33488 2.375,-0.72917c0.76273,-0.35887 1.7067,-1.04634 2.24899,-1.89917c0.3486,-0.5482 0.56632,-1.19022 0.75467,-2.56017c0.10181,-0.74052 0.11807,-1.54087 0.17401,-2.39699c0.0296,-0.45329 0.168,-1.92455 0.22998,-2.45451c0.13098,-1.12011 0.20429,-1.70929 0.25601,-2.32c0.10831,-1.27872 0.13764,-2.6402 0.11802,-3.34949c-0.02012,-0.72685 -0.07062,-1.46794 -0.15003,-2.2185c-0.08047,-0.76057 -0.19021,-1.52572 -0.32999,-2.2905c-0.14022,-0.76735 -0.50045,-2.28426 -0.71966,-3.02667c-0.2182,-0.73903 -0.46506,-1.46661 -0.72901,-2.1855c-0.26342,-0.71748 -0.83444,-2.13258 -1.13067,-2.83466c-0.5922,-1.40351 -0.89765,-2.10097 -1.19599,-2.80001c-0.29733,-0.69662 -0.59188,-1.39014 -0.88049,-2.08049c-0.28607,-0.68433 -0.56695,-1.36236 -0.83551,-2.0355c-0.52508,-1.31614 -1.00046,-2.59634 -1.23266,-3.21467c-0.22648,-0.603 -0.43531,-1.19459 -0.90534,-2.29467c-0.22314,-0.52224 -0.95929,-1.91798 -1.23132,-2.32266c-0.52359,-0.77891 -1.10779,-1.4809 -1.63202,-2.22001c-0.5351,-0.75438 -1.00559,-1.60043 -1.46933,-2.49466c-0.2377,-0.45837 -0.71024,-1.39874 -0.98401,-1.85601c-0.83069,-1.38747 -1.19113,-1.80228 -1.87067,-2.64666c-0.33609,-0.41764 -1.01242,-1.22048 -1.30664,-1.63467c-0.83218,-1.17155 -1.20566,-1.98786 -1.49084,-2.78049c-0.27194,-0.75581 -0.5607,-1.8547 -0.76117,-2.53418c-0.18897,-0.6405 -0.48251,-1.51702 -0.68018,-2.56549c-0.17648,-0.93615 -0.25927,-1.70089 -0.56381,-2.564c-0.23852,-0.67601 -0.58298,-1.36818 -0.85202,-2.109c-0.51193,-1.40969 -0.6048,-2.08982 -0.72,-3.0375c-0.07398,-0.60864 -0.26617,-1.81142 -0.41065,-2.41067c-0.21728,-0.90115 -0.46978,-2.09845 -0.51751,-2.7c-0.07129,-0.89837 -0.05716,-2.1 -0.05716,-2.7c0,-0.9 0,-1.8 0,-2.69983c0,-0.8895 0,-1.743 0,-2.77834c0,-0.85933 -0.13248,-2.0054 -0.61066,-1.59783c-0.36777,0.31345 -0.49466,1.66757 -0.58801,2.236c-0.10291,0.62654 -0.28345,2.00216 -0.36533,2.72c-0.08178,0.71717 -0.15976,1.4192 -0.26935,2.72c-0.09161,1.08739 -0.12854,1.98674 -0.22799,2.736c-0.08747,0.65905 -0.48969,1.87208 -0.79999,2.45334c-0.46359,0.8684 -1.00073,1.62835 -1.37701,2.35349c-0.43381,0.83598 -0.63053,1.86406 -0.78699,2.62117c-0.1994,0.96484 -0.69068,1.63467 -1,2.436l-0.4,0.78934" id="svg_36" stroke-linecap="null" stroke-linejoin="null" stroke-dasharray="null" stroke-width="5" stroke="#000000" fill="#ff7f00"/>
  <path d="m470,184c0,1.835999 0,2.601334 0,3.608994c0,0.905334 0,2.033844 0,2.700836c0,0.710999 0,1.442001 0,2.8685c0,0.660004 0.003418,1.574997 0,2.654999c-0.002258,0.709518 0.004364,1.578079 -0.283997,2.566666c-0.178589,0.612183 -0.55835,1.598434 -0.701324,2.442673c-0.132874,0.784622 -0.338165,1.826736 -0.584015,2.693329c-0.135101,0.476242 -0.448364,1.465057 -0.615997,1.962677c-0.325897,0.967407 -0.774719,2.222931 -1.057495,2.868164c-0.425293,0.970459 -1.032593,1.696487 -1.399994,2.328659c-0.493469,0.849091 -0.788483,1.688232 -1.409851,2.357178c-0.600494,0.646469 -0.823364,1.515152 -1.304504,2.24733c-0.521912,0.794235 -1.282013,1.210617 -1.809479,2.033325c-0.417419,0.651062 -0.798279,1.528732 -1.333344,2.145844c-0.658875,0.759888 -1.236176,1.25444 -1.700012,2.006165c-0.434937,0.704926 -0.890228,1.719559 -1.199982,2.304001c-0.387878,0.731873 -0.997864,1.555984 -1.685333,2.29599c-0.569153,0.612625 -1.048279,1.28096 -1.562012,2.024506c-0.465942,0.674377 -0.512085,1.72728 -0.852661,2.369339c-0.43808,0.825806 -0.802979,1.70929 -1.204498,2.278c-0.618805,0.876511 -1.058594,1.558502 -1.238342,2.485657c-0.182251,0.940048 -0.057159,1.814331 -0.057159,2.704498c0,0.886002 0,1.757172 0,2.616669c0,0.936005 0,1.788666 0,2.721344c0,0.91333 0.061859,1.760635 0.861328,2.139999c0.648224,0.307602 1.617676,0.561951 2.538666,0.574661c0.899933,0.012421 1.738129,0.386536 2.399994,0.716003c0.857025,0.426636 1.774689,0.283997 2.720856,0.283997c0.8685,0 1.766235,-0.055267 2.680481,0.001328c0.687836,0.042572 1.632233,0.464447 2.260345,0.646011c1.202271,0.347534 1.767792,0.292099 2.585663,0.405334c1.276093,0.176682 1.909515,0.525558 2.952667,0.780655c0.777191,0.190048 1.514679,0.166 2.479156,0.166672c0.920837,0.000641 1.820831,0 2.720856,0c0.899994,0 1.799988,0 2.599976,0c1.033356,0 1.810669,0 2.700012,0c0.899994,0 1.795502,0 2.785339,0c0.814667,0 1.714661,0 2.514648,0c1.033356,0 1.810669,0 2.700012,0c0.979156,0 1.852661,0 2.785339,0c0.814667,0 1.714661,0 2.600006,0c0.940002,0 1.630646,0 2.593811,0c1,0 1.873505,0 2.80484,0c0.88266,0 1.920471,0.383942 2.594666,-0.221497c0.617584,-0.554596 0.829163,-1.366302 1.473999,-2.135666c0.584534,-0.697418 0.637268,-1.603622 1.168182,-2.163666c0.660156,-0.696365 1.330292,-1.247498 1.47467,-2.179169c0.137817,-0.889404 -0.048462,-1.834763 0.357147,-2.600006c0.448273,-0.845749 0.21109,-1.899612 0.813995,-2.533325c0.583984,-0.613846 0.833344,-1.082672 0.833344,-1.87117c0,-0.931503 0,-1.779495 0,-2.642838c0,-1.027328 0,-1.973999 0,-2.652664c0,-0.9785 0,-1.79866 0,-2.833328c0,-0.777344 0,-1.666672 0,-2.566666c0,-0.895508 -0.312958,-1.754456 -0.716003,-2.401337c-0.460144,-0.738525 -1.000793,-1.487717 -1.635834,-1.898666c-0.896606,-0.5802 -1.690277,-0.850693 -2.295502,-1.357162c-0.685486,-0.573639 -0.834229,-1.461792 -1.519318,-2.109512c-0.524139,-0.49556 -1.482269,-0.774078 -2.222687,-1.258667c-0.753662,-0.493256 -1.295013,-1.010376 -1.832001,-1.574829c-0.553467,-0.581787 -1.126556,-0.838577 -1.878479,-1.221161c-0.703339,-0.357849 -1.476044,-1.047363 -2.194855,-1.42601c-0.797058,-0.419876 -1.358459,-0.994247 -2.057983,-1.705322c-0.631775,-0.642197 -0.818359,-1.460129 -1.647339,-1.647339c-0.883698,-0.19957 -0.647919,-1.250198 -1.221344,-1.878494c-0.559723,-0.613251 -1.094788,-0.703033 -1.657166,-1.342834c-0.576019,-0.655319 -0.198547,-1.466995 -1.037476,-1.779999c-0.734467,-0.274033 -1.53067,-0.785614 -2.058685,-1.434677c-0.593658,-0.729797 -1.100372,-1.165237 -1.941315,-1.565323c-0.693481,-0.329926 -0.717773,-1.533508 -1.305359,-1.998672c-0.65686,-0.520004 -1.422943,-0.650391 -2.131317,-1.352661c-0.619354,-0.614029 -1.563538,-0.801651 -1.647339,-1.647339c-0.086639,-0.874207 -0.900604,-0.919373 -1.425323,-1.425339c-0.675232,-0.651077 -1.145813,-1.145782 -1.574677,-1.79599c-0.520508,-0.789154 -0.246277,-1.185211 -0.914673,-1.778671c-0.539185,-0.47876 -0.732666,-1 -1.085327,-1.574661l0,-0.925339l0,-0.852661" id="svg_1" stroke-linecap="null" stroke-linejoin="null" stroke-dasharray="null" stroke-width="5" stroke="#000000" fill="#ffaa56"/>
 </g>
</svg>